<?xml version="1.0" standalone="no"?>
<!DOCTYPE svg PUBLIC "-//W3C//DTD SVG 20010904//EN"
 "http://www.w3.org/TR/2001/REC-SVG-20010904/DTD/svg10.dtd">
<svg version="1.0" xmlns="http://www.w3.org/2000/svg"
 width="1024.000000pt" height="1024.000000pt" viewBox="0 0 1024.000000 1024.000000"
 preserveAspectRatio="xMidYMid meet">

<g transform="translate(0.000000,1024.000000) scale(0.100000,-0.100000)"
fill="#f4e8e8" stroke="none">
<path d="M1 7078 c1 -2685 3 -3158 14 -3133 8 17 14 25 15 18 0 -6 3 -20 6
-30 5 -15 4 -15 -5 -3 -8 12 -11 7 -11 -22 0 -20 -6 -38 -12 -40 -9 -3 -8 -9
4 -21 18 -19 38 -22 38 -7 0 6 -7 10 -15 10 -8 0 -15 5 -15 10 0 6 7 10 15 10
9 0 15 9 15 24 0 13 7 27 16 30 8 3 12 2 9 -4 -3 -5 -3 -25 1 -45 6 -33 9 -35
45 -35 l39 0 -1 79 c-2 90 4 104 34 96 18 -5 19 -4 5 5 -17 11 -48 4 -48 -11
0 -17 -18 -9 -23 11 -4 15 0 20 13 20 16 0 19 9 22 58 3 51 5 57 26 60 18 3
22 8 18 25 -3 12 -3 16 0 8 5 -10 10 -6 20 15 7 16 13 23 13 17 1 -7 6 -13 12
-13 6 0 9 7 6 14 -4 10 -1 13 8 10 11 -5 12 -10 2 -25 -14 -22 -24 -24 -30 -6
-2 6 -7 -2 -11 -20 -4 -17 -15 -34 -24 -36 -15 -4 -15 -5 1 -6 10 0 20 6 23
14 4 8 12 15 19 15 7 0 16 7 19 16 4 10 12 14 22 10 8 -3 23 1 32 10 15 15 14
16 -8 10 -23 -7 -22 -6 5 13 17 12 46 21 68 21 20 0 37 5 37 10 0 6 -9 10 -20
10 -11 0 -20 4 -20 9 0 11 63 8 72 -4 9 -11 28 12 28 33 0 10 -10 12 -35 8
-34 -6 -48 6 -23 18 10 5 10 7 1 12 -15 7 -17 24 -4 24 5 0 12 -8 15 -18 4
-10 14 -19 22 -19 15 0 15 1 0 12 -21 16 -21 55 0 55 12 0 15 -6 11 -21 -3
-12 -1 -19 5 -17 15 5 30 48 18 48 -6 0 -10 5 -10 11 0 7 14 10 35 7 31 -3 35
-1 35 18 0 32 11 58 20 45 4 -8 18 -7 46 3 21 8 31 15 22 15 -10 1 -18 7 -18
15 0 8 -6 16 -12 19 -7 2 -9 8 -5 13 4 5 12 2 17 -6 7 -12 12 -12 22 -2 17 17
64 17 50 -1 -7 -8 -6 -19 5 -37 8 -14 12 -17 9 -6 -4 10 -2 24 4 31 8 10 0 21
-30 45 -41 32 -44 42 -14 46 12 2 13 -1 3 -12 -9 -11 -8 -14 5 -14 9 0 16 -5
16 -11 0 -6 9 -8 20 -4 14 4 20 2 18 -7 -2 -8 8 -14 25 -16 15 -2 27 1 27 7 0
6 -7 11 -15 11 -18 0 -20 16 -3 26 6 4 14 2 16 -4 9 -28 22 -8 22 33 0 38 3
45 20 45 13 0 20 7 20 20 0 18 7 20 80 20 62 0 80 3 80 14 0 8 3 22 7 32 4 10
2 15 -3 11 -6 -3 -16 -1 -24 4 -12 8 -11 9 5 7 16 -2 19 2 17 25 -3 22 1 27
17 27 24 0 30 -35 7 -43 -9 -4 -12 -14 -9 -27 4 -16 8 -18 14 -9 4 7 6 16 3
20 -2 4 0 10 6 14 5 3 10 15 10 26 0 10 5 19 10 19 6 0 10 -7 10 -15 0 -8 5
-15 11 -15 6 0 9 7 5 15 -7 19 -1 19 18 -1 15 -14 16 -14 14 3 -3 39 2 53 22
53 13 0 20 7 20 20 0 11 -4 20 -10 20 -24 0 -7 18 20 22 20 3 30 0 30 -9 0
-17 16 -17 24 0 5 9 7 9 12 0 3 -7 14 -13 25 -13 16 0 19 8 20 43 1 23 4 32 6
20 7 -36 21 -27 28 17 l7 40 64 0 c63 0 74 6 54 26 -7 7 -2 18 15 34 14 13 25
32 25 42 0 14 7 18 28 16 15 -1 33 1 39 5 6 4 16 1 22 -7 7 -8 21 -12 31 -9
19 5 29 -11 13 -20 -5 -2 -2 -2 5 0 27 6 61 -9 65 -30 2 -12 5 -4 6 18 1 30 4
36 11 25 5 -8 10 -26 10 -39 0 -13 2 -22 5 -19 3 3 1 55 -5 114 -7 60 -11 142
-11 182 1 53 -2 72 -11 72 -9 0 -9 3 -2 8 11 7 39 351 29 360 -3 3 -5 -13 -5
-36 0 -33 -3 -40 -15 -36 -8 4 -15 2 -15 -4 0 -5 -11 -13 -25 -16 -15 -4 -25
-13 -25 -25 0 -12 -11 -22 -33 -29 l-32 -10 40 -2 40 -3 -35 -7 c-19 -4 -29
-8 -22 -9 6 0 12 -12 12 -26 0 -23 -3 -25 -27 -19 -36 9 -36 7 -22 37 10 21 8
29 -8 46 -16 17 -22 19 -31 9 -6 -7 -11 -16 -11 -20 -1 -5 -4 -8 -8 -7 -4 0
-10 -8 -14 -18 -12 -29 -10 161 2 240 6 40 13 79 17 87 3 8 4 22 3 30 -2 11 0
12 9 4 6 -6 12 -26 14 -45 2 -19 1 -26 -1 -16 -7 28 -23 19 -23 -13 0 -16 5
-30 10 -30 6 0 10 -30 10 -70 l0 -70 40 0 40 0 0 81 c0 51 4 78 10 74 6 -3 10
-2 10 4 0 6 17 9 38 7 32 -3 37 -7 40 -31 2 -16 -1 -25 -6 -21 -5 3 -13 -11
-17 -31 -4 -23 -3 -39 4 -41 5 -2 8 -9 5 -17 -3 -7 0 -16 7 -21 7 -4 10 -3 6
3 -3 5 -2 27 4 48 8 28 13 35 20 24 6 -10 9 -7 9 13 0 85 81 426 144 606 209
602 557 1098 1066 1518 471 390 1111 663 1760 751 178 24 617 24 790 0 418
-58 777 -172 1169 -368 353 -177 655 -403 952 -714 233 -244 385 -464 543
-787 272 -557 378 -1115 325 -1709 -5 -63 -7 -123 -3 -132 9 -24 44 -22 44 2
0 15 9 20 45 23 25 2 45 1 45 -2 0 -3 30 -3 66 -2 39 2 71 -1 77 -7 6 -6 19
-11 29 -11 18 0 21 -8 19 -45 -1 -17 1 -17 14 5 15 24 16 24 10 2 -5 -16 -3
-23 7 -21 38 5 48 -2 49 -33 1 -18 3 -25 6 -15 4 14 8 16 19 6 11 -9 15 -8 20
5 8 20 20 21 28 1 4 -11 0 -15 -12 -13 -9 2 -16 -3 -14 -10 1 -6 1 -13 0 -13
-2 -1 -55 -4 -118 -8 l-115 -6 -2 -30 c-2 -16 -10 -87 -20 -157 l-17 -128 -77
0 -77 0 14 72 c8 40 14 88 14 106 l0 33 -57 -3 -58 -3 -13 -55 c-50 -212 -173
-560 -271 -765 -111 -231 -216 -393 -402 -625 -101 -125 -114 -137 -133 -118
-34 35 -96 110 -96 117 0 4 28 41 63 82 415 489 676 1151 727 1840 44 596
-164 1339 -525 1879 -198 296 -523 626 -820 832 -459 319 -1000 522 -1530 573
-186 18 -467 18 -645 0 -499 -51 -1007 -234 -1439 -518 -599 -395 -1061 -995
-1269 -1648 -150 -467 -191 -891 -132 -1334 51 -388 195 -819 382 -1150 79
-138 239 -371 322 -465 82 -95 82 -81 5 -169 l-46 -52 -59 63 c-143 154 -328
423 -442 646 -118 229 -236 551 -296 807 l-17 70 -58 -3 -58 -4 13 -94 c8 -53
16 -99 19 -105 4 -5 -26 -9 -74 -9 -93 0 -81 -21 -106 185 -9 71 -17 131 -19
132 -1 1 -53 3 -116 4 -85 1 -115 -2 -118 -11 -10 -28 49 -384 88 -540 146
-577 383 -1067 715 -1479 58 -72 105 -133 105 -136 0 -3 -29 -37 -66 -76 l-65
-69 19 -28 c11 -15 98 -103 193 -197 523 -512 1100 -847 1802 -1045 185 -53
355 -85 577 -109 373 -41 662 -38 1025 10 733 96 1501 443 2055 928 103 90
370 351 412 404 l31 39 -67 63 c-36 36 -66 68 -66 72 0 4 30 42 66 83 321 368
600 923 744 1483 42 164 82 368 101 512 12 87 13 89 25 60 13 -30 13 -30 15
-5 1 20 3 19 9 -10 4 -19 8 -26 9 -15 1 17 9 21 46 23 39 1 45 -1 45 -18 0
-13 7 -20 20 -20 13 0 20 -7 20 -20 0 -13 7 -20 19 -20 11 0 21 -9 24 -21 5
-19 11 -21 53 -16 26 2 41 1 34 -3 -17 -10 -8 -45 12 -44 10 1 14 -4 11 -12
-6 -17 -20 -18 -26 -1 -2 6 -8 9 -12 5 -12 -12 2 -22 33 -24 15 -1 33 -2 40
-3 6 0 12 -13 12 -28 0 -16 4 -23 8 -18 9 12 112 17 112 5 0 -4 -9 -6 -20 -3
-15 4 -20 0 -20 -16 0 -12 6 -21 15 -21 8 0 15 -9 15 -21 0 -11 5 -17 10 -14
5 3 10 15 10 26 0 10 5 19 11 19 7 0 10 -12 7 -30 -3 -18 0 -31 9 -34 7 -3 13
0 14 7 1 11 7 -1 24 -50 4 -13 15 -23 25 -23 11 0 19 -10 22 -25 3 -14 1 -25
-6 -25 -6 0 -4 -5 4 -10 8 -5 11 -10 7 -10 -14 0 14 -40 28 -40 8 0 15 -4 15
-10 0 -5 5 -10 10 -10 19 0 10 21 -13 30 -17 7 -18 9 -5 9 10 1 35 -15 55 -34
25 -24 32 -35 21 -35 -9 0 -18 6 -21 13 -2 6 -7 9 -11 6 -3 -3 1 -20 10 -37
16 -33 39 -42 47 -19 2 6 8 9 12 5 8 -7 -18 -38 -32 -38 -4 0 -14 -10 -22 -23
-13 -21 -13 -22 6 -4 11 9 23 14 26 10 4 -3 7 -1 7 5 0 7 7 12 15 12 9 0 12
-6 9 -15 -4 -8 -1 -21 5 -29 9 -10 8 -15 -4 -20 -10 -3 -15 1 -16 12 0 12 -3
10 -10 -7 -5 -13 -7 -26 -4 -29 3 -3 5 -1 5 5 0 6 9 9 19 6 12 -3 17 -11 14
-19 -7 -18 5 -18 23 1 14 13 14 15 0 15 -18 0 -21 16 -6 25 6 4 8 11 5 16 -7
10 -6 10 45 14 l35 3 -40 -21 c-34 -18 -37 -21 -20 -26 24 -7 26 -28 5 -41 -8
-5 -10 -10 -4 -10 6 0 21 9 34 20 28 24 34 25 26 4 -6 -17 21 -51 32 -40 3 4
0 11 -8 16 -8 5 -11 12 -8 16 4 3 15 -1 24 -11 15 -14 15 -18 3 -27 -10 -6 -3
-8 21 -4 l35 6 -30 -13 c-20 -8 -31 -20 -33 -36 -1 -17 2 -22 13 -17 8 3 15 1
15 -4 0 -6 7 -10 15 -10 18 0 20 -16 3 -23 -7 -3 -1 -6 15 -6 21 -1 27 4 27
19 0 13 7 20 20 20 17 0 20 -7 20 -40 0 -25 5 -40 13 -40 8 0 7 -4 -3 -10 -13
-9 -13 -10 0 -10 12 0 13 -2 1 -9 -8 -6 -9 -10 -2 -12 8 -3 8 -15 0 -42 -6
-21 -8 -48 -6 -60 3 -15 5 -12 6 11 0 17 5 32 10 32 6 0 11 -15 14 -32 l3 -33
8 33 c10 37 27 43 24 8 -1 -14 -6 -22 -10 -20 -4 3 -8 1 -8 -5 0 -22 18 -19
29 5 7 16 17 24 26 20 21 -8 27 9 13 39 -7 15 -17 24 -25 21 -8 -4 -11 -1 -8
5 4 6 14 8 22 5 9 -4 22 -1 29 5 8 6 15 9 15 5 1 -3 2 -9 3 -13 1 -5 5 -13 9
-20 4 -6 3 -14 -3 -18 -20 -12 -9 -32 23 -43 17 -5 24 -10 15 -11 -18 -1 -24
-16 -10 -25 13 -8 7 -77 -8 -86 -10 -6 -5 -11 18 -17 31 -8 31 -9 17 -36 -7
-15 -11 -27 -7 -27 4 0 1 -4 -7 -9 -9 -6 -10 -11 -2 -15 6 -4 11 -2 11 3 0 6
8 11 18 12 14 0 14 2 -3 9 -17 7 -17 9 -2 9 16 1 17 166 17 3326 l0 3325
-5120 0 -5120 0 1 -3162z m4657 2216 c42 -29 17 -104 -35 -104 -20 0 -53 38
-53 60 0 22 33 60 53 60 7 0 23 -7 35 -16z m952 -3 c14 -28 12 -67 -4 -80 -8
-7 -29 -11 -47 -9 -68 6 -57 108 11 108 19 0 33 -7 40 -19z m-1430 -121 c38
-38 18 -90 -35 -90 -58 0 -76 71 -25 97 33 17 37 16 60 -7z m952 3 c24 -21 23
-55 -2 -78 -46 -41 -116 29 -75 75 22 24 52 26 77 3z m958 -3 c24 -24 25 -38
4 -68 -18 -26 -50 -28 -76 -5 -22 20 -23 51 -1 75 21 24 48 23 73 -2z m456
-148 c6 -4 16 -16 22 -28 29 -55 -58 -103 -93 -51 -31 49 24 111 71 79z
m-2838 -14 c29 -29 1 -98 -39 -98 -26 0 -49 28 -49 59 0 34 17 51 50 51 14 0
31 -5 38 -12z m-686 -315 c44 -40 2 -115 -54 -94 -42 16 -50 59 -18 91 24 24
47 25 72 3z m4212 -9 c45 -45 -17 -114 -70 -79 -26 17 -33 62 -12 83 17 17 64
15 82 -4z m-2031 -356 c75 -38 124 -145 108 -235 -12 -62 -55 -122 -102 -142
l-39 -16 0 -578 0 -578 -27 -35 c-16 -18 -32 -34 -38 -34 -5 0 -23 17 -40 38
l-30 37 0 572 0 573 -27 11 c-84 35 -140 148 -118 239 35 146 180 215 313 148z
m-2667 14 c6 -4 16 -17 23 -30 25 -48 -38 -98 -84 -68 -38 25 -33 70 10 94 23
13 36 14 51 4z m5194 -21 c14 -28 12 -52 -7 -73 -45 -50 -116 11 -83 73 7 13
21 19 45 19 24 0 38 -6 45 -19z m-3251 -202 c34 -7 64 -23 95 -50 115 -102 96
-278 -38 -348 l-46 -24 0 -261 0 -260 -71 69 -70 70 2 198 3 198 -31 18 c-60
37 -103 125 -96 196 9 89 70 167 150 192 49 15 44 15 102 2z m1361 -10 c105
-47 155 -145 129 -252 -9 -41 -23 -63 -66 -105 l-53 -54 6 -193 7 -193 -52
-48 c-101 -93 -91 -111 -91 181 l0 255 -40 16 c-44 18 -95 71 -116 120 -22 53
-17 114 14 174 30 59 57 84 118 105 54 20 91 18 144 -6z m-3536 -165 c33 -32
9 -94 -35 -94 -35 0 -59 19 -59 47 0 53 59 83 94 47z m5666 -4 c24 -24 25 -47
3 -72 -18 -20 -63 -24 -81 -6 -18 18 -15 75 6 87 26 16 50 13 72 -9z m-4015
-209 c45 -20 91 -69 112 -118 15 -38 17 -106 3 -132 -8 -15 11 -37 113 -132
67 -63 181 -167 252 -231 199 -177 543 -531 609 -626 l58 -83 26 38 c121 180
382 440 920 917 42 37 81 74 85 82 5 8 3 30 -3 50 -37 112 76 254 203 254 122
0 221 -98 221 -220 0 -145 -133 -241 -276 -198 l-39 11 -122 -120 c-153 -150
-263 -254 -447 -419 -199 -180 -346 -334 -412 -434 -57 -86 -148 -262 -148
-287 0 -33 -18 -5 -49 78 -74 198 -187 335 -576 698 -115 108 -277 260 -359
339 -132 127 -152 143 -175 138 -68 -16 -104 -18 -145 -6 -156 44 -208 236
-94 350 67 67 163 88 243 51z m2933 -46 c-3 -3 -9 2 -12 12 -6 14 -5 15 5 6 7
-7 10 -15 7 -18z m-3715 -123 c8 -40 51 -89 92 -104 19 -6 35 -15 35 -18 0 -3
-15 -11 -33 -18 -45 -16 -74 -49 -96 -108 l-19 -48 -22 52 c-24 55 -66 98
-106 108 -31 8 -31 20 1 28 38 10 102 72 115 112 13 39 25 38 33 -4z m3862
-84 c32 -14 32 -34 0 -42 -14 -4 -34 -20 -44 -37 l-19 -31 -18 26 c-9 15 -33
35 -52 45 l-36 18 32 17 c17 9 42 30 54 46 l21 30 19 -30 c10 -17 29 -36 43
-42z m-2231 -32 c51 -21 76 -60 76 -118 0 -42 -4 -54 -28 -75 -27 -23 -28 -27
-20 -81 10 -70 9 -310 -2 -317 -4 -2 -35 27 -69 66 l-61 70 -1 112 c-1 62 -1
115 0 119 0 4 -9 12 -20 19 -11 6 -27 26 -35 45 -26 62 9 136 76 163 34 13 46
13 84 -3z m693 -5 c76 -35 97 -123 43 -184 -30 -34 -30 -36 -30 -150 l0 -115
-70 -74 -69 -73 -1 197 c0 182 -1 198 -19 207 -65 35 -44 163 32 196 43 19 64
18 114 -4z m-3799 -134 c31 -24 1 -97 -41 -97 -42 0 -72 53 -49 86 20 30 59
35 90 11z m6890 -5 c26 -34 1 -92 -40 -92 -38 0 -58 19 -58 55 0 58 62 82 98
37z m-5704 -8 c3 -8 2 -12 -4 -9 -6 3 -10 10 -10 16 0 14 7 11 14 -7z m748
-128 c624 -267 842 -397 1088 -652 163 -169 221 -256 268 -399 28 -84 50 -176
39 -165 -2 3 -40 52 -83 110 -149 198 -358 385 -621 553 -161 103 -498 272
-698 350 -193 76 -181 74 -200 37 l-16 -31 123 -57 c261 -120 619 -305 755
-391 332 -208 593 -459 729 -701 62 -111 51 -109 -72 9 -263 251 -527 421
-1294 831 -414 221 -510 274 -510 283 0 15 289 297 304 297 8 0 93 -33 188
-74z m3295 -81 l151 -154 -102 -54 c-1312 -697 -1433 -773 -1779 -1106 l-68
-66 32 60 c82 151 169 263 315 405 255 247 520 411 1167 718 81 39 147 77 147
84 -1 16 -24 48 -36 48 -33 0 -341 -133 -547 -236 -247 -123 -415 -229 -595
-373 -120 -97 -301 -284 -379 -391 -32 -44 -59 -76 -61 -71 -6 19 39 166 73
237 48 99 140 221 252 331 217 214 475 372 938 576 94 42 204 91 245 111 41
20 79 36 85 36 6 0 79 -70 162 -155z m-3480 -424 c375 -213 427 -246 432 -266
3 -17 -6 -18 -119 -12 -143 6 -123 -2 -470 194 -118 67 -275 154 -348 195
l-133 73 -1 90 c0 50 1 93 1 97 1 3 81 -42 179 -101 97 -60 304 -181 459 -270z
m3953 280 l0 -99 -398 -221 c-427 -237 -436 -241 -577 -241 -137 0 -113 21
275 240 186 105 544 319 635 379 33 22 61 40 63 40 1 1 2 -44 2 -98z m-5839
18 c27 -27 22 -69 -12 -88 -24 -13 -29 -13 -53 2 -34 22 -36 69 -4 91 30 21
44 20 69 -5z m7153 -1 c23 -33 20 -65 -9 -84 -21 -14 -30 -14 -54 -4 -37 15
-45 52 -19 85 24 31 62 32 82 3z m-1029 -198 c3 -10 20 -31 38 -46 24 -21 28
-28 17 -32 -8 -3 -27 -18 -42 -34 l-26 -28 -29 28 c-15 16 -35 31 -43 34 -11
4 -7 12 17 32 18 15 35 36 38 46 4 11 10 20 15 20 5 0 11 -9 15 -20z m-5162
-132 c-21 -23 -36 -23 -58 2 -17 19 -17 20 6 39 24 19 24 19 46 -1 22 -20 22
-23 6 -40z m-1098 -63 c30 -29 31 -49 5 -75 -24 -24 -57 -26 -82 -3 -30 27
-23 69 17 91 28 16 33 15 60 -13z m7413 9 c44 -30 16 -104 -40 -104 -47 0 -66
76 -26 104 12 9 27 16 33 16 6 0 21 -7 33 -16z m-5849 -103 c86 -49 239 -137
340 -195 201 -116 254 -137 324 -129 42 5 52 1 131 -48 47 -30 86 -57 86 -60
0 -18 -111 -53 -179 -57 -103 -6 -166 16 -346 118 -82 48 -213 122 -290 165
-77 43 -166 94 -197 112 l-58 34 0 81 c0 70 2 79 16 74 9 -4 87 -46 173 -95z
m4411 15 l0 -83 -317 -181 c-409 -233 -414 -235 -531 -240 -78 -4 -101 -1
-152 18 -33 12 -63 26 -65 30 -3 4 36 31 85 59 75 42 98 51 140 51 69 0 137
28 297 124 77 45 175 102 219 126 43 23 115 64 159 90 69 41 155 88 163 90 1
0 2 -38 2 -84z m370 -221 l-24 -26 -24 24 -24 24 23 27 23 27 25 -25 25 -25
-24 -26z m-5259 -116 c27 -28 59 -50 79 -54 l33 -7 -61 -30 c-64 -30 -101 -76
-117 -140 -9 -36 -21 -35 -28 2 -12 59 -55 110 -114 137 l-57 26 50 22 c62 27
110 82 126 143 l12 47 15 -50 c11 -33 31 -65 62 -96z m-1153 14 c5 -54 -50
-83 -90 -46 -21 19 -24 66 -5 81 38 31 90 12 95 -35z m7562 37 c11 -11 20 -29
20 -40 0 -11 -9 -29 -20 -40 -11 -11 -29 -20 -40 -20 -21 0 -60 33 -60 50 0
20 24 59 39 63 32 9 41 7 61 -13z m-2810 -43 c0 -5 -295 -178 -393 -231 -133
-72 -192 -122 -331 -280 -136 -154 -194 -211 -204 -201 -6 6 -15 -5 150 185
186 216 174 207 518 392 269 146 260 141 260 135z m-1490 -278 c59 -38 135
-110 355 -340 341 -355 448 -469 441 -469 -13 0 -134 110 -251 231 -184 189
-351 362 -426 443 -71 76 -151 132 -297 208 -108 56 -332 187 -332 195 0 8
433 -219 510 -268z m-3079 238 c-10 -9 -11 -8 -5 6 3 10 9 15 12 12 3 -3 0
-11 -7 -18z m1507 -135 c273 -163 577 -342 707 -417 243 -141 578 -347 644
-395 18 -14 75 -77 126 -140 88 -110 172 -196 242 -250 l33 -25 -55 -54 -55
-54 -47 43 c-66 58 -123 121 -195 213 -80 104 -156 179 -215 213 -48 27 -281
164 -618 364 -316 187 -566 335 -692 409 l-123 72 0 80 c0 68 2 80 15 75 8 -3
113 -63 233 -134z m4352 55 l0 -84 -270 -157 c-148 -86 -411 -241 -582 -343
-172 -102 -382 -227 -467 -277 -84 -50 -170 -108 -191 -128 -21 -20 -81 -90
-133 -155 -88 -111 -225 -253 -243 -253 -5 0 -30 21 -56 47 l-47 47 112 115
c62 64 138 150 169 192 31 42 79 96 106 120 54 49 1568 959 1595 959 4 0 7
-38 7 -83z m-5810 63 c-8 -5 -19 -10 -25 -10 -5 0 -3 5 5 10 8 5 20 10 25 10
6 0 3 -5 -5 -10z m72 -123 c-12 -7 -19 -17 -15 -22 4 -4 2 -5 -4 -1 -18 10
-16 24 5 29 32 9 37 6 14 -6z m6193 -44 c15 -63 55 -112 112 -141 l55 -28 -45
-18 c-54 -20 -100 -69 -117 -123 -18 -56 -27 -60 -39 -17 -19 68 -46 101 -109
130 l-59 28 46 22 c56 26 106 80 122 134 14 47 24 51 34 13z m-6235 7 c0 -5
-4 -10 -10 -10 -5 0 -10 5 -10 10 0 6 5 10 10 10 6 0 10 -4 10 -10z m110 -25
c0 -8 -4 -15 -10 -15 -5 0 -7 7 -4 15 4 8 8 15 10 15 2 0 4 -7 4 -15z m2173
-31 c49 -25 280 -164 492 -295 l190 -118 290 -293 c160 -161 379 -384 487
-495 l196 -202 -51 -51 c-49 -49 -51 -50 -71 -33 -25 22 -57 54 -583 583
l-411 415 -244 147 c-134 82 -296 177 -358 213 -63 36 -123 74 -133 84 -18 18
-17 19 35 25 29 4 65 13 78 20 34 19 46 19 83 0z m2488 6 c10 -6 47 -16 81
-23 l62 -13 -95 -60 c-52 -34 -173 -107 -269 -164 -437 -258 -426 -249 -618
-464 l-53 -59 -49 54 c-27 30 -49 57 -50 60 0 3 28 39 63 80 124 144 154 167
592 434 278 170 294 177 336 155z m-4699 -212 c-6 -6 -7 0 -4 19 5 21 7 23 10
9 2 -10 0 -22 -6 -28z m718 -16 c16 -60 50 -103 103 -131 l49 -25 -45 -23
c-53 -26 -79 -57 -103 -119 -9 -24 -20 -44 -24 -44 -4 0 -10 18 -14 40 -8 49
-51 100 -106 125 -22 10 -40 21 -40 25 0 3 16 12 35 19 46 16 104 85 111 133
8 49 20 48 34 0z m4990 -44 l-1 -83 -367 -222 c-202 -123 -377 -231 -390 -241
-19 -15 -21 -21 -12 -52 24 -82 -26 -181 -112 -224 -83 -42 -166 -31 -246 32
l-39 31 -59 -28 c-72 -34 -106 -72 -129 -143 -34 -103 -62 -144 -156 -229
-154 -140 -511 -471 -562 -522 -27 -26 -52 -47 -56 -45 -3 2 -29 27 -56 57
l-50 53 57 52 c189 171 529 489 560 523 20 23 62 91 93 151 80 158 164 233
279 248 42 6 44 8 49 46 7 52 47 111 99 145 36 24 52 28 114 28 60 0 78 -4
104 -23 l31 -23 72 56 c40 31 99 76 132 100 89 64 625 394 643 395 1 0 2 -37
2 -82z m-4449 -10 c74 -45 195 -118 269 -163 231 -141 308 -191 371 -246 39
-34 63 -48 68 -41 12 21 80 42 132 42 102 0 199 -84 214 -185 l7 -42 59 -6
c117 -10 220 -96 300 -250 53 -101 55 -104 308 -351 580 -566 828 -819 855
-873 50 -100 56 -151 56 -489 l0 -312 -63 -11 c-35 -6 -67 -11 -70 -11 -4 0
-7 123 -7 273 0 310 -7 373 -48 461 -26 55 -68 101 -373 402 -189 187 -443
436 -564 553 -222 215 -235 231 -278 332 -30 69 -84 123 -145 143 -58 20 -76
20 -93 -1 -22 -25 -110 -63 -150 -63 -61 0 -125 28 -168 75 -56 61 -69 116
-45 196 3 13 -65 58 -293 194 -538 321 -483 284 -483 326 0 20 -3 57 -6 83 -4
28 -3 46 3 46 6 0 71 -37 144 -82z m-1264 -50 c-3 -8 -6 -5 -6 6 -1 11 2 17 5
13 3 -3 4 -12 1 -19z m-92 -138 c3 -6 -1 -7 -9 -4 -18 7 -21 14 -7 14 6 0 13
-4 16 -10z m-305 -35 c7 -8 16 -13 20 -10 7 5 3 -39 -7 -65 -4 -8 -6 -18 -5
-21 1 -3 -18 -6 -41 -5 -35 1 -44 5 -55 28 -13 29 -4 63 22 80 18 13 53 9 66
-7z m7688 -1 c52 -36 7 -116 -55 -98 -16 4 -30 7 -33 6 -12 -2 3 74 18 91 19
21 41 22 70 1z m-7301 -41 c-1 -16 2 -41 5 -58 4 -16 5 -24 2 -17 -3 6 -13 12
-22 12 -9 0 -28 9 -42 20 -20 16 -22 20 -7 20 9 0 17 -4 17 -10 0 -5 5 -10 10
-10 6 0 10 9 10 20 0 11 5 20 10 20 6 0 10 7 10 15 0 8 2 15 5 15 2 0 3 -12 2
-27z m1173 -37 c66 -33 105 -100 105 -180 0 -51 3 -63 20 -72 74 -42 326 -193
523 -315 128 -79 268 -165 310 -190 42 -25 124 -76 182 -112 58 -36 150 -93
205 -127 55 -33 125 -80 156 -103 47 -34 691 -655 833 -802 55 -57 86 -130 93
-220 3 -43 2 -75 -3 -75 -5 0 -20 7 -33 16 -13 9 -42 22 -64 29 -44 13 -50 19
-66 80 -13 48 -33 71 -311 335 -118 112 -291 279 -385 371 -175 171 -207 195
-277 207 -34 6 -43 12 -51 37 -19 57 -47 83 -146 134 -54 28 -181 101 -282
162 -280 170 -724 436 -755 452 -26 13 -30 13 -57 -7 -40 -29 -136 -29 -192 0
-150 78 -150 295 1 381 53 31 133 30 194 -1z m4683 10 c108 -45 162 -190 109
-292 -56 -109 -186 -154 -292 -100 l-33 16 -181 -107 c-100 -59 -212 -127
-251 -151 -150 -96 -551 -335 -617 -368 -77 -39 -122 -81 -138 -130 -9 -28
-17 -33 -53 -39 -73 -12 -118 -44 -244 -168 -68 -66 -126 -118 -130 -114 -3 4
-1 7 5 7 6 0 9 7 5 15 -3 9 -2 15 3 14 18 -3 34 1 34 9 0 12 -44 12 -51 0 -4
-6 -14 2 -24 21 -13 25 -14 36 -4 47 6 7 16 11 23 7 6 -3 8 -3 4 2 -4 4 -2 15
4 24 7 9 -13 -6 -43 -34 -31 -27 -85 -75 -120 -105 l-64 -55 42 50 c78 94 328
331 398 377 82 54 546 344 697 436 238 145 370 225 494 301 l132 80 4 69 c4
86 32 131 103 173 57 33 132 39 188 15z m-6139 -94 c2 -4 -4 -8 -14 -8 -10 0
-16 4 -14 8 3 4 9 8 14 8 5 0 11 -4 14 -8z m306 -11 c0 -6 -4 -13 -10 -16 -5
-3 -10 1 -10 9 0 9 5 16 10 16 6 0 10 -4 10 -9z m-145 -31 c-11 -5 -27 -9 -35
-9 -9 0 -8 4 5 9 11 5 27 9 35 9 9 0 8 -4 -5 -9z m6975 6 c0 -3 -4 -8 -10 -11
-5 -3 -10 -1 -10 4 0 6 5 11 10 11 6 0 10 -2 10 -4z m-6196 -99 l25 -24 -27
-26 -27 -26 -29 25 -28 25 23 23 c31 30 33 31 63 3z m5596 -8 l29 -22 -32 -30
c-31 -29 -31 -29 -45 -8 -8 12 -21 21 -28 21 -20 0 -17 10 8 37 26 28 31 28
68 2z m573 -10 c5 -3 2 -9 -5 -12 -9 -3 -14 3 -15 15 -1 11 1 16 5 12 4 -5 11
-12 15 -15z m533 -211 c-9 -5 -23 -5 -32 0 -12 6 -7 9 16 9 23 0 28 -3 16 -9z
m-4062 -138 c25 -27 45 -53 45 -57 -1 -4 -62 -66 -136 -138 l-133 -129 -52 52
-53 52 135 135 c74 74 138 135 141 135 4 0 27 -22 53 -50z m2960 31 c4 -5 -3
-7 -14 -4 -23 6 -26 13 -6 13 8 0 17 -4 20 -9z m-30 -44 c7 -6 6 -7 -4 -4 -8
2 -16 12 -17 23 -2 13 -1 15 4 4 3 -8 11 -19 17 -23z m-5082 13 c50 -14 89
-49 119 -104 20 -39 29 -46 54 -46 37 0 83 -21 205 -93 264 -154 311 -195 426
-368 58 -88 99 -139 125 -156 21 -14 39 -27 39 -28 0 -1 -13 -2 -29 -1 -16 1
-27 4 -25 7 2 4 -11 10 -29 14 -57 14 -67 13 -67 -6 0 -11 -5 -19 -10 -19 -7
0 -7 -8 1 -22 21 -43 -102 87 -156 162 -92 131 -146 175 -340 284 -97 54 -177
97 -179 95 -2 -2 -13 -22 -25 -44 -12 -22 -38 -52 -58 -65 -31 -21 -48 -25
-113 -25 -67 0 -82 4 -118 27 -46 31 -87 94 -97 150 -9 48 16 134 52 176 54
63 138 86 225 62z m4734 -25 c83 -49 125 -168 90 -259 -18 -47 -79 -110 -122
-126 -44 -17 -131 -12 -175 10 -34 18 -91 80 -102 113 -2 7 -45 -13 -108 -50
-57 -33 -138 -80 -179 -104 -95 -55 -160 -115 -223 -209 -28 -41 -75 -101
-105 -133 l-55 -57 -19 20 c-17 18 -18 27 -10 65 8 36 7 42 -5 38 -8 -3 -11
-8 -9 -11 3 -3 -2 -11 -12 -19 -16 -14 -16 -14 1 -9 11 4 16 2 12 -5 -4 -5
-12 -8 -18 -6 -7 2 -36 -7 -65 -20 -72 -32 -76 -29 -15 12 53 36 65 49 176
209 75 109 148 170 322 275 164 98 248 141 279 141 17 0 27 8 35 29 17 40 82
100 127 117 52 19 126 11 180 -21z m-6939 -191 c-3 -3 -12 -4 -19 -1 -8 3 -5
6 6 6 11 1 17 -2 13 -5z m-87 -45 c0 -11 -4 -18 -10 -14 -5 3 -7 12 -3 20 7
21 13 19 13 -6z m-140 -119 c0 -5 -4 -10 -10 -10 -5 0 -10 5 -10 10 0 6 5 10
10 10 6 0 10 -4 10 -10z m80 -40 c0 -5 -4 -10 -10 -10 -5 0 -10 5 -10 10 0 6
5 10 10 10 6 0 10 -4 10 -10z m9325 1 c-9 -8 -36 -10 -30 -2 2 4 11 8 20 8 8
0 13 -3 10 -6z m-5828 -96 c11 -8 29 -35 39 -60 17 -45 17 -48 -3 -89 -33 -66
-102 -93 -163 -61 -96 50 -94 177 4 221 34 15 89 10 123 -11z m2432 -4 c60
-43 62 -145 4 -191 -50 -39 -138 -35 -178 10 -23 25 -30 107 -13 140 7 13 29
35 48 48 42 28 93 26 139 -7z m-6264 -31 c3 -5 -1 -10 -10 -10 -9 0 -13 5 -10
10 3 6 8 10 10 10 2 0 7 -4 10 -10z m2997 -82 c72 -33 134 -91 208 -192 77
-107 112 -139 191 -175 76 -35 99 -56 79 -74 -10 -9 -11 -9 -6 1 11 19 -10 40
-47 47 -18 4 -56 20 -84 36 -29 16 -61 29 -70 29 -10 0 -14 3 -8 8 6 4 0 19
-17 37 -23 24 -28 26 -28 12 0 -16 -5 -17 -31 -12 -22 5 -34 3 -40 -6 -6 -10
-9 -5 -9 16 0 24 2 27 11 15 8 -11 12 -12 16 -2 2 6 8 10 13 7 4 -3 13 2 20
10 10 12 9 16 -4 21 -9 3 -23 1 -30 -5 -10 -8 -16 -9 -21 -1 -10 16 -75 13
-75 -4 0 -7 9 -16 21 -19 13 -3 18 -10 14 -17 -5 -8 -15 -5 -31 11 -13 12 -21
26 -18 31 3 5 2 7 -3 6 -4 -1 -24 13 -43 31 -56 54 -79 60 -212 53 l-118 -5 0
81 0 81 53 4 c122 10 210 2 269 -25z m4216 26 l52 -7 0 -79 0 -79 -132 3
c-127 3 -135 2 -173 -22 -22 -14 -44 -24 -48 -22 -5 1 -6 -1 -4 -5 3 -5 -10
-26 -29 -48 -30 -34 -32 -36 -20 -10 16 31 13 46 -6 27 -17 -17 -48 -15 -48 3
0 8 -6 15 -12 15 -18 0 -62 -24 -57 -30 2 -3 -27 -34 -64 -67 -63 -58 -162
-110 -190 -100 -6 2 12 11 39 21 82 30 120 64 206 178 75 101 141 164 206 197
51 27 173 37 280 25z m-7283 -125 c-5 -14 -4 -19 4 -15 7 5 8 1 4 -10 -5 -14
-7 -14 -15 -1 -4 8 -5 22 -2 31 9 24 16 19 9 -5z m4095 -24 c6 -8 10 -22 8
-32 -4 -23 -59 -25 -65 -3 -4 13 -3 13 6 0 9 -12 11 -9 11 15 0 23 -3 27 -10
15 -5 -8 -10 -10 -10 -4 0 27 40 33 60 9z m-4050 -70 c0 -8 -4 -15 -10 -15 -5
0 -10 7 -10 15 0 8 5 15 10 15 6 0 10 -7 10 -15z m3580 -41 c0 -2 -9 0 -20 6
-11 6 -20 13 -20 16 0 2 9 0 20 -6 11 -6 20 -13 20 -16z m287 2 c36 -30 120
-76 138 -76 7 0 16 -4 20 -10 6 -10 -71 11 -126 34 -42 18 -101 76 -77 76 9 0
29 -11 45 -24z m2303 -6 c-38 -34 -100 -66 -145 -75 -22 -4 -15 2 27 24 31 17
73 42 94 56 51 34 65 32 24 -5z m700 -43 c0 -2 -12 -14 -27 -28 l-28 -24 24
28 c23 25 31 32 31 24z m-3700 -51 c9 -15 3 -12 -19 8 -17 17 -31 31 -31 33 0
9 39 -23 50 -41z m2153 9 c-3 -9 -8 -14 -10 -11 -3 3 -2 9 2 15 9 16 15 13 8
-4z m-2112 -52 c13 -16 12 -17 -3 -4 -10 7 -18 15 -18 17 0 8 8 3 21 -13z
m2544 -39 c-60 -31 -122 -65 -137 -76 -15 -10 -28 -16 -28 -11 0 14 100 75
180 110 114 50 108 39 -15 -23z m-1866 20 c14 -12 -19 -1 -35 12 -18 14 -18
14 6 3 14 -6 27 -13 29 -15z m454 -67 c30 -19 83 -63 118 -97 35 -35 44 -45
19 -23 -83 72 -154 121 -227 157 -40 20 -73 38 -73 41 0 9 107 -43 163 -78z
m1097 80 c0 -2 -11 -14 -24 -26 -18 -17 -26 -19 -31 -10 -5 7 -4 10 2 6 6 -4
18 2 28 13 17 19 25 24 25 17z m-1746 -168 c41 -11 126 -88 126 -114 0 -8 1
-15 3 -16 1 0 63 -4 137 -8 159 -9 205 -27 282 -109 89 -95 92 -107 96 -349 4
-238 10 -222 -73 -198 -28 8 -36 13 -18 10 27 -4 31 -2 27 13 -5 15 -4 15 8 1
7 -9 20 -14 28 -12 13 4 13 3 0 -6 -13 -9 -13 -11 3 -11 15 0 17 13 17 140 0
77 -4 140 -8 140 -4 0 -9 -12 -10 -27 -3 -40 -20 -51 -28 -19 -3 14 -12 26
-20 26 -8 0 -14 5 -14 10 0 6 -9 10 -20 10 -19 0 -20 -7 -22 -132 -2 -128 -2
-126 -7 53 -6 177 -7 187 -31 223 -33 48 -101 94 -154 101 -22 4 -72 5 -111 3
l-70 -3 -23 -43 c-67 -121 -250 -138 -346 -32 -54 60 -68 132 -42 208 22 62
55 99 110 127 54 27 99 31 160 14z m2743 -14 c137 -69 163 -246 52 -352 -43
-40 -77 -53 -140 -53 -87 0 -153 39 -191 114 l-20 38 -91 -4 c-68 -3 -103 -10
-133 -25 -46 -24 -114 -95 -114 -119 0 -8 -3 -13 -7 -11 -5 3 -8 -77 -8 -176
l0 -182 -50 -11 c-93 -22 -85 -40 -85 189 1 218 6 246 56 318 33 48 111 107
167 126 31 11 199 31 270 33 4 0 7 7 7 15 0 21 67 86 110 107 51 25 117 23
177 -7z m-3494 -336 c220 -198 425 -338 684 -468 315 -156 685 -266 1033 -305
125 -14 409 -18 552 -7 518 38 1042 220 1498 520 127 84 331 244 399 314 l43
45 48 -56 c79 -96 271 -307 286 -315 8 -4 88 -7 179 -5 91 2 165 1 165 -1 0
-9 -229 -237 -326 -326 -56 -50 -165 -139 -241 -198 -524 -397 -1108 -643
-1753 -739 -139 -21 -191 -23 -505 -23 -382 1 -469 8 -764 66 -269 53 -528
139 -806 267 -424 196 -814 472 -1165 826 l-125 126 172 0 172 0 168 190 c92
104 169 189 171 190 2 0 53 -45 115 -101z m2148 -139 c74 -38 114 -121 107
-221 -19 -268 -419 -241 -418 28 1 172 159 270 311 193z"/>
<path d="M5050 8190 c-12 -12 -20 -33 -20 -55 0 -81 104 -105 135 -31 32 75
-59 142 -115 86z"/>
<path d="M4393 7965 c-29 -20 -37 -59 -19 -94 25 -47 79 -56 114 -18 62 65
-21 164 -95 112z"/>
<path d="M5712 7957 c-29 -31 -28 -72 3 -102 44 -45 109 -22 121 42 13 67 -77
110 -124 60z"/>
<path d="M3811 7574 c-24 -30 -26 -43 -10 -77 11 -25 47 -47 75 -47 24 0 64
47 64 75 0 14 -11 37 -25 50 -33 34 -77 33 -104 -1z"/>
<path d="M6290 7580 c-30 -30 -27 -83 6 -109 15 -12 34 -21 44 -21 34 0 70 39
70 75 0 65 -76 99 -120 55z"/>
<path d="M6383 5050 c-71 -29 -45 -140 33 -140 44 0 74 29 74 73 0 53 -56 88
-107 67z"/>
<path d="M3770 5053 c-79 -30 -58 -143 27 -143 36 0 73 38 73 75 0 45 -58 84
-100 68z"/>
<path d="M2702 5167 c-48 -51 -10 -132 58 -125 43 4 75 45 66 82 -16 63 -83
86 -124 43z"/>
<path d="M7400 5170 c-45 -45 -13 -130 50 -130 41 0 70 31 70 75 0 65 -75 100
-120 55z"/>
<path d="M2730 4577 c-14 -7 -31 -25 -40 -40 -13 -24 -13 -30 0 -54 23 -41 63
-58 97 -41 15 7 34 25 42 39 12 22 12 29 0 54 -18 38 -67 58 -99 42z"/>
<path d="M3660 3987 c0 -3 12 -12 26 -22 15 -9 23 -12 20 -6 -7 11 -46 35 -46
28z"/>
<path d="M7391 4554 c-34 -43 -26 -86 20 -109 39 -21 56 -19 84 10 50 49 20
125 -49 125 -25 0 -40 -7 -55 -26z"/>
<path d="M6580 3910 c-9 -6 -10 -10 -3 -10 6 0 15 5 18 10 8 12 4 12 -15 0z"/>
<path d="M3685 3380 c-28 -31 -24 -79 9 -107 33 -28 56 -29 90 -2 35 27 37 90
4 113 -32 22 -81 20 -103 -4z"/>
<path d="M6406 3379 c-54 -43 -21 -119 52 -119 47 0 72 24 72 68 0 35 -38 72
-75 72 -12 0 -34 -9 -49 -21z"/>
<path d="M2910 2938 c-19 -23 -67 -83 -107 -132 l-72 -90 32 -28 c88 -76 134
-101 189 -101 68 -1 111 22 143 76 55 95 19 202 -98 291 -19 14 -38 26 -43 26
-5 0 -25 -19 -44 -42z m87 -90 c46 -51 54 -92 26 -138 -34 -58 -88 -64 -140
-17 l-36 34 57 71 c32 40 61 72 65 72 4 0 17 -10 28 -22z"/>
<path d="M7138 2910 c-34 -27 -78 -62 -97 -78 l-34 -29 95 -119 c143 -178 119
-170 230 -79 51 43 96 80 101 84 4 4 -7 17 -23 30 l-31 22 -60 -50 c-34 -28
-64 -51 -67 -51 -4 0 -13 10 -21 22 -12 20 -10 25 38 71 l51 49 -21 29 c-24
34 -14 37 -95 -34 -18 -16 -35 -29 -39 -28 -3 0 -15 11 -26 25 l-20 25 71 53
c38 29 70 55 70 58 0 4 -13 16 -29 28 l-29 21 -64 -49z"/>
<path d="M3252 2693 c-15 -25 -57 -91 -94 -147 -50 -77 -63 -104 -55 -113 20
-19 181 -123 193 -123 5 0 20 14 32 30 13 17 19 30 14 30 -18 0 -132 80 -132
92 0 7 7 21 15 31 13 18 17 17 73 -22 l60 -40 16 24 c9 13 16 28 16 33 0 5
-27 27 -61 49 l-60 40 23 26 23 27 65 -45 c36 -24 68 -45 71 -45 3 0 13 15 21
34 l16 33 -104 66 -105 66 -27 -46z"/>
<path d="M6840 2690 c-46 -8 -68 -21 -110 -64 -30 -32 -34 -43 -38 -99 -6
-109 54 -188 154 -203 66 -10 128 17 191 83 l52 54 -23 47 c-37 80 -56 112
-65 112 -4 0 -16 -9 -26 -20 -10 -11 -40 -34 -66 -51 l-49 -31 23 -27 22 -28
33 25 c27 20 35 23 42 12 21 -35 -49 -100 -108 -100 -41 0 -90 42 -98 85 -7
40 17 97 50 114 12 7 38 13 56 14 23 1 39 10 53 29 11 15 18 30 15 34 -12 12
-74 20 -108 14z"/>
<path d="M3537 2557 c-2 -7 -5 -96 -6 -199 l-2 -186 26 -6 c31 -8 42 -1 142
95 43 41 97 90 121 110 23 20 42 40 42 46 0 11 -44 33 -67 33 -8 0 -51 -35
-95 -77 -43 -43 -83 -79 -87 -81 -8 -3 -7 29 3 189 4 56 3 57 -30 73 -42 19
-41 19 -47 3z"/>
<path d="M6360 2444 c-36 -13 -70 -26 -77 -29 -8 -3 -3 -28 18 -87 45 -127 91
-242 100 -252 13 -15 167 64 204 105 55 61 59 146 11 219 -48 73 -139 89 -256
44z m161 -64 c24 -13 49 -61 49 -94 0 -30 -41 -81 -82 -102 -16 -9 -32 -14
-34 -12 -6 7 -75 190 -72 193 33 25 104 33 139 15z"/>
<path d="M3872 2258 c-27 -79 -53 -157 -56 -175 -7 -29 -5 -32 26 -39 18 -5
37 -9 42 -9 5 0 16 27 25 60 23 86 42 84 65 -7 25 -98 29 -104 78 -116 23 -6
43 -10 45 -9 1 2 -16 51 -38 110 -21 59 -39 111 -39 116 0 5 38 31 85 57 46
27 85 52 85 55 0 3 -15 13 -34 22 -34 16 -35 16 -112 -28 -43 -25 -80 -43 -82
-40 -2 2 5 29 17 60 12 31 21 57 21 59 0 5 -59 26 -70 26 -4 0 -30 -64 -58
-142z"/>
<path d="M6028 2326 c-59 -17 -108 -36 -108 -42 0 -10 99 -323 106 -335 4 -8
224 59 238 71 4 5 3 24 -4 44 l-11 36 -37 -16 c-60 -26 -123 -47 -127 -42 -3
2 -8 18 -11 36 -6 30 -6 31 57 50 61 19 64 22 61 49 -2 15 -7 31 -11 36 -4 4
-35 -4 -69 -18 -34 -14 -64 -25 -66 -25 -5 0 -26 58 -26 71 0 5 6 9 13 9 6 0
44 9 83 21 l71 21 -10 34 c-12 41 -10 41 -149 0z"/>
<path d="M4240 2193 c-12 -54 -30 -133 -40 -175 l-17 -78 35 -10 c45 -12 45
-11 67 102 10 48 19 88 21 88 1 0 28 -51 59 -112 32 -62 60 -116 64 -119 3 -4
22 -9 42 -12 l37 -5 22 121 c12 67 27 145 34 173 7 28 10 56 8 62 -2 7 -21 12
-41 12 l-38 0 -18 -105 c-10 -58 -21 -105 -25 -105 -9 0 -97 179 -106 216 -6
24 -38 44 -69 44 -9 0 -21 -33 -35 -97z"/>
<path d="M5638 2233 c-34 -5 -34 -8 -8 -167 30 -172 37 -196 61 -196 28 0 213
41 220 48 3 4 2 22 -3 41 -8 28 -13 32 -31 27 -50 -15 -137 -29 -143 -23 -3 3
-16 67 -27 141 -12 75 -26 135 -32 134 -5 0 -22 -3 -37 -5z"/>
<path d="M4650 2214 c0 -5 18 -76 40 -159 23 -82 45 -167 51 -188 10 -37 11
-38 52 -35 l41 3 42 103 c23 57 45 113 49 125 7 23 14 5 65 -170 l21 -73 37 0
c43 0 32 -22 128 248 l44 123 -46 -3 -46 -3 -35 -109 c-19 -59 -38 -104 -42
-100 -4 5 -21 55 -37 112 l-29 102 -50 0 -50 0 -40 -111 c-22 -61 -43 -112
-46 -114 -3 -2 -18 52 -34 121 -17 71 -34 124 -41 124 -6 0 -26 3 -43 6 -17 4
-31 3 -31 -2z"/>
<path d="M5324 2193 l-31 -4 4 -142 c2 -78 6 -161 9 -183 l5 -42 62 5 c34 3
87 8 117 12 55 6 55 7 53 39 0 19 -3 35 -5 38 -2 2 -36 0 -74 -5 -38 -5 -71
-7 -73 -5 -3 3 -19 213 -21 277 0 9 -3 16 -7 15 -5 0 -22 -3 -39 -5z"/>
<path d="M5065 2918 c-28 -16 -35 -28 -35 -65 0 -70 87 -101 129 -47 27 34 26
57 -1 88 -27 30 -66 40 -93 24z"/>
<path d="M1545 5710 c4 -6 11 -8 16 -5 14 9 11 15 -7 15 -8 0 -12 -5 -9 -10z"/>
<path d="M1613 5103 c9 -2 25 -2 35 0 9 3 1 5 -18 5 -19 0 -27 -2 -17 -5z"/>
<path d="M1556 5092 c-9 -14 14 -19 49 -11 22 5 24 7 8 8 -12 0 -28 4 -36 7
-8 3 -18 1 -21 -4z"/>
<path d="M1450 5075 c0 -8 5 -15 10 -15 6 0 10 7 10 15 0 8 -4 15 -10 15 -5 0
-10 -7 -10 -15z"/>
<path d="M8550 5020 c0 -5 5 -10 10 -10 6 0 10 5 10 10 0 6 -4 10 -10 10 -5 0
-10 -4 -10 -10z"/>
<path d="M8590 5020 c0 -5 5 -10 10 -10 6 0 10 5 10 10 0 6 -4 10 -10 10 -5 0
-10 -4 -10 -10z"/>
<path d="M8626 5014 c-4 -9 -4 -19 -1 -22 3 -3 5 0 5 6 0 7 11 12 25 12 14 0
25 5 25 10 0 17 -47 11 -54 -6z"/>
<path d="M1721 5004 c0 -11 3 -14 6 -6 3 7 2 16 -1 19 -3 4 -6 -2 -5 -13z"/>
<path d="M8730 5000 c0 -5 5 -10 11 -10 5 0 7 5 4 10 -3 6 -8 10 -11 10 -2 0
-4 -4 -4 -10z"/>
<path d="M8462 4970 c0 -14 2 -19 5 -12 2 6 2 18 0 25 -3 6 -5 1 -5 -13z"/>
<path d="M1296 4908 c3 -5 10 -6 15 -3 13 9 11 12 -6 12 -8 0 -12 -4 -9 -9z"/>
<path d="M8940 4765 c0 -8 4 -15 10 -15 5 0 7 7 4 15 -4 8 -8 15 -10 15 -2 0
-4 -7 -4 -15z"/>
<path d="M9161 4683 c-1 -17 16 -25 25 -12 4 7 3 9 -4 5 -5 -3 -13 0 -15 6 -4
9 -6 10 -6 1z"/>
<path d="M9330 4580 c-8 -5 -10 -10 -5 -10 6 0 17 5 25 10 8 5 11 10 5 10 -5
0 -17 -5 -25 -10z"/>
<path d="M9376 4507 c3 -10 9 -15 12 -12 3 3 0 11 -7 18 -10 9 -11 8 -5 -6z"/>
<path d="M9435 4479 c-11 -17 1 -21 15 -4 8 9 8 15 2 15 -6 0 -14 -5 -17 -11z"/>
<path d="M510 4385 c0 -8 7 -15 15 -15 8 0 15 4 15 9 0 5 -7 11 -15 15 -9 3
-15 0 -15 -9z"/>
<path d="M456 4195 c-9 -26 -7 -32 5 -12 6 10 9 21 6 23 -2 3 -7 -2 -11 -11z"/>
<path d="M9681 4164 c0 -11 3 -14 6 -6 3 7 2 16 -1 19 -3 4 -6 -2 -5 -13z"/>
<path d="M258 4143 c7 -3 16 -2 19 1 4 3 -2 6 -13 5 -11 0 -14 -3 -6 -6z"/>
<path d="M206 4127 c-13 -10 -16 -16 -7 -21 15 -10 53 3 48 17 -5 17 -21 18
-41 4z"/>
<path d="M370 4125 c0 -5 5 -17 10 -25 5 -8 10 -10 10 -5 0 6 -5 17 -10 25 -5
8 -10 11 -10 5z"/>
<path d="M250 4100 c-18 -12 -2 -12 25 0 13 6 15 9 5 9 -8 0 -22 -4 -30 -9z"/>
<path d="M9848 4053 c7 -3 16 -2 19 1 4 3 -2 6 -13 5 -11 0 -14 -3 -6 -6z"/>
<path d="M9850 4030 c0 -5 5 -10 10 -10 6 0 10 5 10 10 0 6 -4 10 -10 10 -5 0
-10 -4 -10 -10z"/>
<path d="M9870 3980 c0 -5 7 -10 15 -10 8 0 15 5 15 10 0 6 -7 10 -15 10 -8 0
-15 -4 -15 -10z"/>
<path d="M9838 3933 c7 -3 16 -2 19 1 4 3 -2 6 -13 5 -11 0 -14 -3 -6 -6z"/>
<path d="M9913 3922 c-8 -5 1 -8 22 -9 19 -1 35 3 35 8 0 11 -40 12 -57 1z"/>
<path d="M10133 3859 c-12 -12 -7 -39 8 -39 5 0 8 11 7 25 -1 14 -3 25 -3 25
-1 0 -6 -5 -12 -11z"/>
<path d="M0 3821 c0 -6 4 -13 10 -16 6 -3 7 1 4 9 -7 18 -14 21 -14 7z"/>
<path d="M0 3780 c0 -5 5 -10 10 -10 6 0 10 5 10 10 0 6 -4 10 -10 10 -5 0
-10 -4 -10 -10z"/>
<path d="M118 3783 c7 -3 16 -2 19 1 4 3 -2 6 -13 5 -11 0 -14 -3 -6 -6z"/>
<path d="M10155 3770 c4 -6 11 -8 16 -5 14 9 11 15 -7 15 -8 0 -12 -5 -9 -10z"/>
<path d="M10007 3743 c-3 -5 6 -9 20 -10 19 -1 22 1 12 8 -17 11 -26 11 -32 2z"/>
<path d="M10135 3740 c-2 -4 1 -7 8 -7 7 0 17 -2 24 -4 6 -2 10 0 10 6 -2 11
-36 15 -42 5z"/>
<path d="M10146 3705 c4 -8 8 -15 10 -15 2 0 4 7 4 15 0 8 -4 15 -10 15 -5 0
-7 -7 -4 -15z"/>
<path d="M1 3644 c0 -11 3 -14 6 -6 3 7 2 16 -1 19 -3 4 -6 -2 -5 -13z"/>
<path d="M10214 3220 c0 -13 4 -16 10 -10 7 7 7 13 0 20 -6 6 -10 3 -10 -10z"/>
<path d="M10220 2700 c-9 -6 -10 -10 -3 -10 6 0 15 5 18 10 8 12 4 12 -15 0z"/>
<path d="M10175 2620 c-3 -5 -1 -10 4 -10 6 0 11 5 11 10 0 6 -2 10 -4 10 -3
0 -8 -4 -11 -10z"/>
<path d="M46 2582 c-2 -4 4 -8 14 -8 10 0 16 4 14 8 -3 4 -9 8 -14 8 -5 0 -11
-4 -14 -8z"/>
<path d="M10210 2385 c-6 -8 -9 -23 -5 -35 4 -12 2 -20 -6 -20 -18 0 -38 -32
-39 -62 0 -18 -5 -28 -15 -28 -8 0 -22 -14 -30 -30 -9 -17 -20 -28 -25 -25
-16 10 -12 -12 5 -29 21 -21 19 -28 -7 -21 -17 5 -19 4 -9 -4 12 -7 12 -13 3
-24 -7 -7 -9 -17 -5 -20 3 -4 1 -7 -5 -7 -7 0 -24 -19 -38 -42 -15 -24 -33
-49 -41 -56 -17 -18 -12 -36 12 -41 13 -2 16 1 12 13 -4 9 -2 26 3 38 9 24 10
22 15 -41 2 -22 0 -29 -6 -20 -7 11 -9 11 -9 1 0 -10 -5 -10 -21 -1 -17 9 -25
8 -37 -5 -15 -15 -14 -16 11 -16 15 0 27 -4 27 -10 0 -5 -11 -10 -24 -10 -19
0 -22 -4 -18 -25 2 -13 1 -36 -2 -50 -5 -21 -11 -25 -29 -20 -17 5 -19 4 -7
-4 13 -10 13 -12 0 -21 -8 -5 -21 -10 -28 -10 -10 0 -12 -10 -7 -40 6 -38 6
-40 -20 -40 -21 0 -26 -4 -25 -22 3 -36 1 -41 -14 -29 -10 8 -16 9 -21 1 -4
-6 -1 -9 7 -8 7 2 12 -3 10 -11 -2 -8 3 -11 12 -8 13 5 14 3 3 -13 -12 -21
-27 -27 -27 -11 0 4 -12 6 -26 3 -25 -5 -25 -5 13 -23 21 -10 28 -16 15 -13
-12 3 -22 2 -21 -3 4 -21 -2 -33 -16 -33 -8 0 -15 -3 -15 -6 0 -3 7 -12 15
-20 8 -9 15 -21 15 -27 0 -7 -4 -6 -10 3 -9 14 -11 13 -14 -9 -2 -15 -16 -25
-17 -13 -3 26 -4 31 -11 37 -4 4 -5 -5 -2 -21 3 -16 2 -25 -2 -22 -6 7 -48
-38 -50 -54 -1 -5 -2 -12 -3 -18 0 -5 -8 -10 -16 -10 -8 0 -15 -4 -15 -9 0 -5
7 -11 15 -15 24 -9 17 -23 -10 -21 -14 2 -25 -1 -25 -6 0 -5 5 -9 11 -9 5 0 7
-5 4 -10 -4 -6 -15 -8 -25 -5 -16 5 -19 1 -17 -23 1 -21 6 -28 17 -25 10 3 9
1 -2 -7 -10 -6 -18 -23 -18 -38 0 -50 -43 -71 -60 -29 -8 18 -9 16 -4 -12 4
-23 3 -31 -5 -27 -7 5 -11 -6 -11 -33 0 -37 -2 -41 -26 -41 -16 0 -23 -4 -18
-12 4 -7 3 -8 -5 -4 -6 4 -9 16 -6 26 3 10 0 22 -6 26 -8 4 -9 3 -5 -4 4 -6 2
-20 -3 -31 -8 -14 -8 -21 2 -24 9 -4 9 -6 0 -6 -7 -1 -13 -12 -13 -26 0 -18
-5 -25 -20 -25 -11 0 -20 -4 -20 -10 0 -5 -9 -10 -20 -10 -12 0 -20 -7 -20
-18 0 -9 -20 -37 -44 -62 -45 -46 -50 -66 -15 -55 24 8 24 -3 0 -34 -16 -21
-20 -22 -39 -10 -33 21 -57 1 -58 -47 -1 -22 -4 -46 -7 -54 -3 -8 -8 -24 -10
-35 -4 -18 -5 -18 -6 3 -1 18 -7 22 -31 22 -16 0 -30 -5 -30 -11 0 -7 10 -9
25 -7 34 7 32 -7 -4 -23 -17 -8 -27 -18 -24 -26 3 -9 -4 -13 -21 -13 -19 0
-26 -5 -26 -20 0 -25 -20 -27 -21 -2 -1 9 -5 -2 -11 -25 -7 -31 -14 -43 -30
-45 -12 -2 -26 -12 -32 -23 -6 -11 -20 -26 -30 -34 -11 -8 -28 -23 -39 -34
-19 -19 -19 -19 -12 4 7 22 7 22 -9 6 -10 -9 -15 -21 -11 -26 9 -16 -16 -25
-27 -10 -8 11 -9 11 -5 -2 7 -21 -11 -39 -37 -39 -38 0 -86 -23 -81 -40 6 -20
-4 -33 -38 -48 -17 -7 -25 -17 -21 -24 5 -8 2 -9 -9 -5 -22 8 -22 -9 1 -23 14
-9 13 -10 -8 -4 -22 6 -23 5 -11 -10 8 -9 11 -19 7 -23 -3 -3 -6 -1 -6 6 0 9
-5 9 -21 0 -17 -9 -23 -8 -30 2 -6 10 -9 10 -9 2 0 -8 -7 -10 -17 -6 -16 6
-16 5 -5 -10 19 -23 -3 -66 -45 -86 -18 -9 -33 -24 -33 -33 0 -17 48 -18 880
-18 l880 0 0 1200 c0 665 -4 1200 -9 1200 -5 0 -14 -7 -21 -15z m17 -10 c0 -8
-4 -12 -9 -9 -5 3 -6 10 -3 15 9 13 12 11 12 -6z m-70 -197 c-3 -8 -6 -5 -6 6
-1 11 2 17 5 13 3 -3 4 -12 1 -19z m-19 -29 c11 -17 11 -24 2 -33 -10 -8 -11
-7 -8 4 3 8 -1 23 -10 33 -8 9 -11 17 -6 17 5 0 15 -10 22 -21z m-28 -49 c0
-5 -4 -10 -10 -10 -5 0 -10 5 -10 10 0 6 5 10 10 10 6 0 10 -4 10 -10z m-720
-1244 c-7 -7 -13 -7 -20 0 -6 6 -3 10 10 10 13 0 16 -4 10 -10z m-320 -350 c0
-3 -4 -8 -10 -11 -5 -3 -10 -1 -10 4 0 6 5 11 10 11 6 0 10 -2 10 -4z m-290
-206 c-8 -5 -19 -10 -25 -10 -5 0 -3 5 5 10 8 5 20 10 25 10 6 0 3 -5 -5 -10z"/>
<path d="M10157 2343 c-4 -3 -7 -13 -7 -22 1 -13 3 -13 11 2 11 19 8 33 -4 20z"/>
<path d="M13 2224 c-10 -10 -13 -258 -13 -1118 l0 -1106 864 0 c859 0 864 0
859 20 -3 12 -14 20 -27 20 -12 0 -37 11 -56 25 -19 14 -38 25 -42 25 -12 0
-53 44 -50 53 1 4 -2 7 -8 7 -5 0 -10 -7 -10 -15 0 -8 -4 -15 -10 -15 -5 0
-10 9 -10 21 0 14 -5 19 -15 16 -8 -4 -17 -2 -21 4 -3 6 -12 8 -20 5 -8 -3
-11 0 -7 10 6 16 23 19 23 4 0 -5 5 -10 11 -10 6 0 9 7 6 15 -9 21 10 28 22 8
10 -17 10 -17 11 0 0 9 -3 17 -7 18 -5 0 -20 2 -35 4 -16 2 -29 -2 -32 -11 -6
-16 -36 -19 -36 -3 0 6 7 8 16 5 8 -3 13 -2 10 3 -7 11 22 23 35 16 5 -4 6 1
3 9 -8 20 -12 20 -31 1 -18 -19 -43 -4 -43 27 0 15 -5 18 -19 13 -11 -3 -22
-1 -26 5 -3 5 -1 10 5 10 15 0 7 25 -8 26 -7 1 -23 2 -37 3 -15 1 -25 7 -25
16 0 8 -5 15 -11 15 -6 0 -8 7 -5 16 4 9 2 22 -3 28 -5 6 -10 14 -10 19 -1 4
-3 6 -5 5 -2 -2 -12 4 -22 13 -11 9 -30 20 -44 24 -39 11 -70 34 -70 51 0 9
-16 35 -36 60 -31 37 -39 42 -56 33 -11 -6 -22 -8 -26 -5 -3 3 1 6 8 6 7 0 1
9 -14 21 -14 11 -26 26 -26 32 0 7 -10 17 -22 22 -17 7 -24 21 -28 50 -5 38
-7 40 -40 40 -34 0 -35 1 -36 38 -1 32 -10 47 -55 93 -29 30 -48 54 -41 54 7
0 12 5 12 10 0 6 -8 10 -17 10 -20 0 -103 78 -103 97 0 7 -5 13 -11 13 -6 0
-8 9 -4 21 6 19 4 21 -13 17 -15 -4 -26 1 -37 18 -20 31 -19 62 3 67 9 2 2 2
-15 0 -39 -5 -77 13 -69 33 3 8 1 14 -4 14 -6 0 -10 7 -10 16 0 8 4 13 9 10
10 -7 9 49 -2 60 -4 4 -7 2 -7 -6 0 -10 -3 -10 -15 0 -21 18 -19 33 5 27 11
-3 20 -1 20 4 0 5 -7 9 -16 9 -8 0 -12 5 -9 11 4 6 -2 13 -14 16 -11 3 -23 14
-26 24 -4 10 -11 19 -17 19 -6 0 -8 13 -6 30 3 17 1 30 -4 30 -5 0 -6 5 -3 10
4 6 -6 10 -24 10 -32 0 -58 30 -45 51 4 8 -1 9 -17 5 -22 -7 -22 -6 4 11 30
20 34 35 13 52 -12 10 -14 9 -10 -6 2 -10 0 -24 -5 -32 -13 -20 -34 -2 -27 24
4 14 1 25 -7 28 -6 3 -1 6 13 7 22 0 23 2 7 11 -9 5 -17 16 -17 23 0 25 -42
68 -61 63 -16 -4 -19 1 -19 31 -1 42 -19 72 -44 72 -13 0 -14 3 -4 19 9 15 9
23 -1 35 -7 8 -9 21 -5 28 5 8 1 8 -11 -2 -10 -8 -16 -10 -12 -3 5 8 -1 15
-17 19 -17 4 -27 15 -31 36 -4 17 -10 26 -14 20 -4 -7 -11 -4 -19 8 -7 11 -8
20 -3 20 5 0 12 -6 14 -12 3 -8 6 -7 6 4 1 9 -4 20 -9 23 -7 4 -6 13 1 26 6
12 13 18 16 15 3 -3 0 -14 -8 -23 -13 -16 -12 -17 3 -5 13 10 16 26 13 72 -5
84 -30 119 -62 84z m32 -13 c-3 -5 2 -16 10 -24 11 -12 12 -17 2 -20 -9 -4 -8
-8 3 -16 13 -10 13 -11 0 -11 -13 0 -13 -1 0 -10 8 -5 11 -12 8 -16 -4 -3 -14
1 -23 10 -9 9 -12 16 -7 16 13 0 7 47 -8 65 -10 12 -9 15 4 15 10 0 15 -4 11
-9z m115 -381 c0 -5 -7 -10 -15 -10 -8 0 -15 5 -15 10 0 6 7 10 15 10 8 0 15
-4 15 -10z m96 -155 c11 -27 -1 -33 -19 -9 -16 21 -16 24 -2 24 9 0 18 -7 21
-15z m784 -1105 c0 -5 -5 -10 -11 -10 -5 0 -7 5 -4 10 3 6 8 10 11 10 2 0 4
-4 4 -10z m156 -142 c4 -6 2 -14 -4 -16 -6 -2 -8 -11 -5 -20 4 -13 2 -12 -10
3 -15 19 -13 45 3 45 5 0 12 -5 16 -12z m34 -62 c-7 -7 -13 -7 -20 0 -6 6 -3
10 10 10 13 0 16 -4 10 -10z m30 -26 c0 -5 -4 -10 -9 -10 -6 0 -13 5 -16 10
-3 6 1 10 9 10 9 0 16 -4 16 -10z m90 -80 c0 -5 -2 -10 -4 -10 -3 0 -8 5 -11
10 -3 6 -1 10 4 10 6 0 11 -4 11 -10z"/>
<path d="M67 2040 c6 -22 31 -46 39 -37 7 7 -17 45 -32 51 -7 3 -10 -3 -7 -14z"/>
<path d="M120 1981 c0 -6 4 -13 10 -16 6 -3 7 1 4 9 -7 18 -14 21 -14 7z"/>
<path d="M9818 1693 c7 -3 16 -2 19 1 4 3 -2 6 -13 5 -11 0 -14 -3 -6 -6z"/>
<path d="M500 1302 c0 -12 19 -26 26 -19 2 2 -2 10 -11 17 -9 8 -15 8 -15 2z"/>
<path d="M541 1294 c0 -11 3 -14 6 -6 3 7 2 16 -1 19 -3 4 -6 -2 -5 -13z"/>
<path d="M9550 1160 c0 -5 5 -10 10 -10 6 0 10 5 10 10 0 6 -4 10 -10 10 -5 0
-10 -4 -10 -10z"/>
<path d="M576 1148 c3 -5 10 -6 15 -3 13 9 11 12 -6 12 -8 0 -12 -4 -9 -9z"/>
<path d="M851 835 c1 -19 18 -51 18 -35 0 8 -4 22 -9 30 -5 8 -9 11 -9 5z"/>
<path d="M9257 784 c6 -16 29 -19 38 -4 3 6 3 10 -2 11 -4 0 -16 2 -25 4 -11
2 -15 -2 -11 -11z"/>
<path d="M9125 680 c-4 -6 7 -10 27 -10 25 0 29 3 18 10 -19 13 -37 13 -45 0z"/>
<path d="M1019 673 c-1 -5 -1 -11 0 -15 0 -5 -3 -8 -9 -8 -5 0 -10 -5 -10 -12
0 -9 3 -9 12 0 11 11 20 42 12 42 -2 0 -5 -3 -5 -7z"/>
<path d="M8780 340 c0 -5 5 -10 11 -10 5 0 7 5 4 10 -3 6 -8 10 -11 10 -2 0
-4 -4 -4 -10z"/>
</g>
</svg>
