<?xml version="1.0" standalone="no"?>
<!DOCTYPE svg PUBLIC "-//W3C//DTD SVG 20010904//EN"
 "http://www.w3.org/TR/2001/REC-SVG-20010904/DTD/svg10.dtd">
<svg version="1.0" xmlns="http://www.w3.org/2000/svg"
 width="832.000000pt" height="934.000000pt" viewBox="0 0 832.000000 934.000000"
 preserveAspectRatio="xMidYMid meet">

<g transform="translate(0.000000,934.000000) scale(0.100000,-0.100000)"
fill="#000000" stroke="none">
<path d="M4422 8442 c-8 -6 -2 -9 18 -9 20 0 26 3 18 9 -7 4 -15 8 -18 8 -3 0
-11 -4 -18 -8z"/>
<path d="M3742 8411 c-11 -7 -11 -9 1 -14 16 -6 27 0 27 15 0 10 -11 10 -28
-1z"/>
<path d="M4541 8380 c0 -8 4 -22 9 -30 12 -18 12 -2 0 25 -6 13 -9 15 -9 5z"/>
<path d="M4700 8379 c0 -5 5 -7 10 -4 6 3 10 8 10 11 0 2 -4 4 -10 4 -5 0 -10
-5 -10 -11z"/>
<path d="M3146 8331 c-4 -6 -3 -18 4 -25 8 -11 8 -15 -1 -18 -7 -2 -9 -9 -5
-16 5 -8 13 -6 28 8 12 11 28 20 35 20 18 0 16 17 -3 24 -22 8 -26 8 -19 -4
10 -17 -7 -11 -20 7 -9 12 -14 13 -19 4z"/>
<path d="M4220 8325 c0 -17 2 -18 24 -9 23 9 20 24 -4 24 -11 0 -20 -7 -20
-15z"/>
<path d="M4908 8333 c7 -3 16 -2 19 1 4 3 -2 6 -13 5 -11 0 -14 -3 -6 -6z"/>
<path d="M4545 8320 c-3 -5 -1 -10 4 -10 6 0 11 5 11 10 0 6 -2 10 -4 10 -3 0
-8 -4 -11 -10z"/>
<path d="M5184 8304 c4 -12 2 -15 -9 -10 -8 3 -15 1 -15 -4 0 -5 9 -12 20 -15
11 -4 18 -11 15 -16 -4 -5 -1 -9 4 -9 13 0 14 17 2 24 -5 3 -7 15 -4 26 3 12
0 20 -7 20 -7 0 -10 -7 -6 -16z"/>
<path d="M4570 8306 c0 -2 9 -6 20 -9 11 -3 18 -1 14 4 -5 9 -34 13 -34 5z"/>
<path d="M4650 8299 c0 -5 5 -7 10 -4 6 3 10 8 10 11 0 2 -4 4 -10 4 -5 0 -10
-5 -10 -11z"/>
<path d="M3015 8270 c-3 -5 1 -10 10 -10 9 0 13 5 10 10 -3 6 -8 10 -10 10 -2
0 -7 -4 -10 -10z"/>
<path d="M3257 8231 c-4 -17 -3 -21 5 -13 5 5 8 16 6 23 -3 8 -7 3 -11 -10z"/>
<path d="M4211 8234 c0 -11 3 -14 6 -6 3 7 2 16 -1 19 -3 4 -6 -2 -5 -13z"/>
<path d="M6161 7974 c0 -11 3 -14 6 -6 3 7 2 16 -1 19 -3 4 -6 -2 -5 -13z"/>
<path d="M6278 7933 c7 -3 16 -2 19 1 4 3 -2 6 -13 5 -11 0 -14 -3 -6 -6z"/>
<path d="M4170 7850 l-65 -7 78 -1 c46 -1 77 2 77 8 0 6 -6 9 -12 8 -7 -1 -42
-4 -78 -8z"/>
<path d="M1999 7793 c-13 -16 -12 -17 4 -4 9 7 17 15 17 17 0 8 -8 3 -21 -13z"/>
<path d="M4715 7800 c-3 -5 -1 -10 4 -10 6 0 11 5 11 10 0 6 -2 10 -4 10 -3 0
-8 -4 -11 -10z"/>
<path d="M4770 7789 c0 -5 5 -7 10 -4 6 3 10 8 10 11 0 2 -4 4 -10 4 -5 0 -10
-5 -10 -11z"/>
<path d="M2101 7760 c0 -15 -6 -31 -13 -38 -9 -9 -9 -12 0 -12 16 0 25 23 19
52 -4 22 -4 22 -6 -2z"/>
<path d="M5065 7720 c3 -5 8 -10 11 -10 2 0 4 5 4 10 0 6 -5 10 -11 10 -5 0
-7 -4 -4 -10z"/>
<path d="M3935 7643 c-438 -38 -793 -135 -1180 -323 -338 -164 -590 -344 -861
-615 -465 -465 -723 -931 -868 -1570 -49 -216 -84 -554 -71 -675 4 -36 9 -92
10 -125 4 -62 12 -140 30 -270 2 -16 6 -44 8 -61 2 -17 7 -35 10 -40 3 -6 8
-28 10 -49 3 -22 8 -47 11 -55 3 -8 7 -26 10 -40 7 -36 61 -222 90 -310 41
-123 113 -294 183 -435 100 -201 271 -457 390 -587 29 -32 53 -61 53 -65 0 -5
-25 -35 -54 -68 l-54 -60 -37 39 c-49 52 -179 214 -241 301 -174 243 -343 587
-434 885 -12 41 -36 114 -51 162 -16 48 -29 93 -29 100 0 7 -5 30 -11 51 l-10
38 -52 -3 -52 -3 1 -35 c0 -19 4 -65 8 -102 l8 -68 -75 0 c-63 0 -77 3 -81 18
-3 9 -13 78 -22 152 -9 74 -18 138 -21 142 -6 11 -221 10 -227 0 -5 -9 13
-163 39 -319 56 -338 250 -898 412 -1188 88 -157 220 -356 298 -450 23 -27 61
-77 86 -110 24 -33 50 -66 56 -73 7 -7 13 -15 13 -17 0 -2 -27 -34 -60 -72
-33 -37 -60 -74 -60 -80 0 -23 272 -293 421 -419 210 -175 459 -355 596 -430
155 -85 263 -137 383 -184 74 -29 191 -78 260 -108 126 -54 198 -79 365 -125
241 -66 419 -94 690 -107 115 -6 244 -15 285 -21 134 -19 549 17 828 70 207
40 404 99 757 227 72 26 427 210 559 289 154 92 309 203 466 334 133 111 480
453 480 473 0 7 -27 40 -60 73 -33 33 -60 63 -60 68 0 5 33 48 73 95 372 442
652 1041 782 1672 29 139 65 391 58 403 -2 4 -56 7 -119 7 -84 0 -114 -3 -114
-12 0 -37 -42 -294 -50 -303 -10 -12 -127 -12 -139 1 -6 5 -3 38 5 79 23 117
23 115 -45 115 l-59 0 -7 -42 c-4 -24 -22 -88 -40 -143 -18 -55 -36 -113 -40
-130 -17 -77 -155 -416 -226 -556 -79 -157 -139 -256 -232 -384 -72 -99 -200
-255 -232 -285 l-27 -25 -49 55 c-27 30 -49 61 -49 68 0 8 37 57 81 110 158
187 335 482 443 736 58 136 147 407 162 491 3 17 12 55 19 85 26 103 56 295
65 425 6 72 14 164 19 205 5 41 7 102 5 135 -28 394 -102 718 -241 1060 -62
153 -191 403 -272 526 -156 241 -436 548 -666 733 -416 334 -951 581 -1460
676 -217 40 -590 60 -790 43z m286 -204 c90 -31 143 -106 143 -204 0 -76 -24
-128 -78 -166 -23 -16 -47 -34 -55 -41 -12 -10 -13 -98 -7 -582 l6 -571 -30
-32 c-17 -18 -36 -30 -43 -27 -6 2 -23 21 -37 41 l-25 37 0 569 0 570 -40 22
c-147 82 -128 321 30 379 49 18 92 19 136 5z m-621 -250 c22 -13 52 -40 67
-62 25 -35 28 -50 28 -117 0 -67 -3 -82 -28 -119 -18 -27 -43 -49 -67 -60
l-38 -16 -7 -123 c-4 -68 -4 -150 -1 -183 7 -63 -2 -219 -13 -219 -3 0 -32 26
-64 58 l-58 57 -2 202 -3 202 -40 35 c-81 69 -102 172 -55 264 54 104 176 140
281 81z m1285 20 c74 -20 145 -119 145 -200 0 -54 -23 -105 -69 -150 l-46 -47
3 -198 4 -199 -64 -57 c-61 -56 -63 -56 -75 -35 -8 15 -10 65 -8 157 2 74 1
179 -2 233 -6 97 -6 98 -37 114 -75 37 -116 103 -116 184 0 145 123 237 265
198z m-1855 -80 c0 -6 -7 -17 -16 -26 -11 -12 -18 -13 -27 -4 -8 8 -7 11 6 11
9 0 17 7 17 15 0 8 5 15 10 15 6 0 10 -5 10 -11z m2453 -306 c49 -20 101 -82
117 -139 26 -93 -22 -198 -108 -236 -42 -19 -98 -21 -173 -6 -10 2 -100 -75
-230 -198 -118 -110 -288 -268 -379 -350 -213 -195 -327 -316 -406 -435 -59
-88 -134 -233 -134 -258 0 -22 -18 -10 -25 17 -3 15 -24 65 -46 112 -81 173
-219 326 -693 771 -411 385 -372 352 -408 340 -138 -48 -278 48 -278 191 1
130 96 216 230 206 69 -5 119 -38 158 -104 20 -33 22 -49 19 -111 l-4 -72 156
-144 c86 -80 179 -164 206 -187 28 -23 154 -144 281 -269 158 -155 255 -260
309 -331 42 -58 81 -106 85 -108 3 -1 40 41 81 95 127 168 440 474 872 852 89
78 99 94 87 126 -16 42 -12 86 14 141 26 56 66 90 129 110 45 14 79 11 140
-13z m447 -21 c0 -5 -6 -17 -14 -28 -17 -23 -41 -8 -30 19 6 17 44 24 44 9z
m-3639 -231 c44 -30 47 -37 20 -46 -26 -8 -79 -69 -87 -100 -8 -32 -20 -32
-28 -1 -6 26 -57 84 -91 105 -15 9 -17 13 -6 18 28 11 89 74 101 103 l12 30
21 -41 c11 -23 37 -53 58 -68z m3778 19 c23 -22 37 -40 30 -40 -6 0 -24 -14
-40 -31 l-29 -31 -31 31 c-17 17 -35 31 -40 31 -6 0 7 17 28 39 21 21 38 39
39 40 0 0 20 -17 43 -39z m-2193 -56 c46 -22 71 -87 54 -138 -6 -20 -21 -41
-32 -47 -17 -9 -19 -16 -13 -42 11 -45 14 -347 4 -347 -18 0 -120 117 -127
145 -4 17 -7 75 -7 130 0 94 -1 101 -25 122 -49 42 -26 146 41 180 33 17 64
16 105 -3z m678 2 c18 -8 41 -24 50 -37 28 -41 17 -130 -19 -151 -9 -6 -11
-36 -7 -116 4 -93 2 -113 -13 -138 -25 -40 -107 -124 -121 -124 -8 0 -10 47
-6 181 l5 181 -28 22 c-20 16 -28 33 -31 66 -6 56 11 90 56 112 42 22 70 22
114 4z m-2564 -111 c14 -17 7 -31 -19 -38 -28 -7 -48 18 -31 38 16 19 34 19
50 0z m4301 0 c1 -17 -18 -17 -25 0 -4 11 -1 15 10 13 8 -2 15 -7 15 -13z
m-3521 -201 c530 -228 731 -348 969 -579 118 -114 215 -234 255 -314 30 -58
76 -197 76 -225 -1 -19 -3 -18 -23 9 -216 292 -494 523 -882 733 -147 79 -393
192 -535 245 -52 20 -103 39 -112 42 -22 9 -55 -50 -39 -69 6 -7 82 -46 169
-87 804 -375 1173 -650 1416 -1054 20 -32 36 -63 36 -68 0 -5 -49 37 -108 92
-134 125 -215 190 -362 290 -166 113 -498 304 -915 526 -333 177 -495 267
-501 277 -9 15 268 288 291 288 11 0 130 -48 265 -106z m3213 -42 l147 -148
-457 -243 c-875 -467 -1052 -577 -1333 -833 -121 -110 -124 -112 -96 -63 65
113 137 206 246 319 245 252 466 400 970 647 395 194 393 193 397 205 2 7 -7
24 -19 39 l-23 27 -125 -50 c-386 -153 -713 -329 -963 -519 -118 -89 -347
-316 -426 -421 -30 -39 -56 -70 -58 -68 -2 2 8 41 23 87 53 170 125 280 284
439 215 215 468 374 896 564 93 41 212 94 264 119 52 25 102 46 110 46 8 1 82
-66 163 -147z m-3615 -348 c29 -16 69 -39 90 -51 20 -12 53 -30 72 -40 247
-135 411 -236 400 -246 -9 -10 -185 -9 -220 0 -39 11 -196 87 -220 107 -8 7
-28 20 -45 28 -16 8 -48 25 -70 38 -71 41 -110 63 -307 171 l-193 107 -3 91
-3 90 223 -133 c123 -73 247 -146 276 -162z m4082 199 l0 -88 -193 -108 c-105
-59 -214 -121 -242 -138 -27 -16 -72 -40 -100 -54 -27 -13 -68 -36 -90 -49
-70 -44 -179 -96 -202 -96 -12 0 -24 -4 -28 -9 -5 -9 -173 -6 -182 3 -9 9 115
93 232 157 240 130 286 157 362 206 28 18 54 33 57 33 6 0 163 94 290 174 49
31 91 56 93 56 1 0 3 -39 3 -87z m313 -208 l27 -33 -28 -30 -28 -30 -33 30
-32 29 28 34 c15 18 30 34 33 34 3 0 17 -15 33 -34z m-5184 -92 c-15 -17 -34
-17 -49 2 -11 13 -10 18 6 30 16 12 21 11 36 -2 14 -12 15 -19 7 -30z m609
-250 c416 -240 409 -237 506 -242 70 -3 85 -7 136 -40 32 -20 66 -41 76 -48
18 -11 18 -12 -1 -27 -11 -8 -25 -16 -32 -16 -6 0 -24 -5 -40 -11 -35 -14
-161 -13 -217 2 -46 12 -162 73 -306 158 -52 31 -120 70 -150 85 -30 16 -60
33 -66 38 -6 4 -42 24 -80 44 -38 21 -88 50 -111 66 -38 26 -43 33 -43 67 0
40 10 101 16 101 2 0 142 -80 312 -177z m4262 92 l0 -74 -42 -24 c-24 -14
-108 -61 -188 -106 -80 -45 -152 -86 -160 -91 -140 -86 -333 -181 -380 -187
-22 -3 -43 -10 -46 -14 -7 -12 -57 -11 -86 0 -13 5 -49 17 -80 26 -32 9 -60
20 -63 24 -2 4 31 29 74 54 65 39 87 47 128 47 76 0 138 23 268 101 200 119
554 318 568 319 4 0 7 -34 7 -75z m375 -205 l-19 -21 -20 20 c-19 20 -19 21
-1 41 l19 21 20 -20 c19 -20 19 -21 1 -41z m-5259 -131 c16 -15 42 -33 58 -41
l28 -15 -31 -12 c-38 -16 -108 -91 -117 -125 -3 -14 -9 -26 -13 -25 -3 0 -17
24 -31 52 -20 40 -38 59 -78 83 l-51 31 40 19 c49 21 105 85 115 128 l7 31 22
-50 c12 -28 35 -62 51 -76z m1537 52 c23 -15 69 -42 102 -60 33 -17 96 -51
140 -75 44 -25 125 -68 180 -96 187 -96 199 -106 406 -323 100 -106 269 -281
376 -389 106 -108 193 -203 193 -210 0 -7 -7 -24 -16 -37 -12 -17 -13 -26 -5
-34 16 -16 14 -25 -9 -37 -17 -9 -25 -5 -50 22 -16 18 -30 38 -30 43 0 10 -64
65 -75 65 -11 0 -245 236 -245 248 0 6 -3 12 -8 12 -14 0 -112 99 -112 115 0
8 -6 15 -12 15 -18 1 -49 29 -78 70 -13 19 -28 38 -33 41 -4 3 -44 40 -88 82
-116 111 -162 144 -384 265 -237 129 -324 179 -347 200 -21 17 -24 62 -5 62 6
1 21 12 32 25 11 14 21 25 23 25 2 0 22 -13 45 -29z m2257 -11 c11 -11 20 -24
20 -28 0 -10 -83 -65 -125 -83 -16 -7 -39 -20 -50 -29 -22 -18 -243 -144 -365
-207 -116 -60 -158 -90 -227 -162 -34 -36 -63 -68 -63 -72 0 -3 -11 -16 -25
-29 l-25 -23 0 31 c0 44 -15 47 -50 11 -31 -33 -38 -49 -19 -49 6 0 8 -9 4
-21 -5 -15 -4 -19 4 -15 26 16 8 -19 -34 -67 -25 -29 -45 -55 -45 -59 0 -18
-50 -7 -61 13 -6 12 -7 19 -1 15 17 -10 22 36 6 58 l-14 21 -6 -22 c-8 -28
-34 -39 -34 -13 0 10 4 22 10 25 5 3 49 52 97 108 195 228 241 267 448 377 55
29 125 68 155 85 119 71 234 125 252 119 12 -4 18 0 18 11 0 13 6 16 23 12 12
-4 29 -2 37 3 24 15 48 12 70 -10z m-3267 -197 c118 -71 313 -186 434 -257
951 -559 921 -539 1068 -716 63 -77 147 -166 185 -197 l70 -57 -52 -53 -52
-53 -91 93 c-50 50 -118 128 -152 172 -79 103 -143 165 -217 210 -32 19 -60
35 -62 35 -3 0 -41 23 -87 51 -45 29 -98 60 -117 71 -19 11 -75 43 -123 71
-48 29 -95 57 -105 62 -88 52 -290 171 -385 229 -65 39 -132 79 -149 89 -38
22 -278 161 -335 194 -62 36 -66 44 -58 118 3 36 8 65 10 65 2 0 100 -57 218
-127z m4357 48 l0 -79 -174 -101 c-96 -56 -185 -107 -198 -114 -13 -7 -34 -20
-48 -28 -14 -9 -126 -76 -250 -149 -124 -73 -236 -140 -250 -149 -14 -10 -52
-32 -85 -51 -213 -120 -467 -278 -503 -313 -24 -23 -73 -80 -109 -127 -62 -80
-250 -280 -264 -280 -3 0 -25 23 -49 51 l-42 50 76 71 c42 38 118 122 170 186
51 65 113 135 137 157 44 41 717 447 1458 882 69 40 126 73 128 73 2 0 3 -35
3 -79z m460 -115 c0 -28 61 -102 104 -126 l45 -26 -44 -22 c-46 -22 -105 -91
-105 -123 0 -34 -17 -28 -28 10 -14 47 -73 107 -120 122 l-36 12 46 23 c52 27
91 69 109 118 12 33 29 40 29 12z m-3795 -128 c93 -56 247 -148 340 -206 196
-120 169 -96 777 -715 l381 -388 -43 -44 c-24 -25 -48 -45 -53 -45 -6 0 -234
226 -507 503 l-498 502 -141 85 c-78 47 -156 94 -175 105 -18 11 -74 45 -125
75 -51 30 -109 65 -129 77 -20 12 -47 27 -60 32 -12 6 -46 26 -74 46 -40 27
-48 35 -31 35 12 0 25 5 28 10 4 6 10 8 14 6 4 -3 25 1 47 9 21 8 48 14 59 15
10 0 96 -46 190 -102z m2353 88 c26 -8 60 -17 76 -21 29 -6 29 -6 -35 -49 -35
-23 -122 -77 -194 -120 -71 -42 -137 -81 -145 -86 -8 -5 -58 -34 -110 -65
-239 -141 -264 -159 -382 -289 -61 -66 -116 -121 -121 -121 -5 0 -28 21 -50
47 l-40 47 18 28 c41 62 222 231 295 275 41 25 194 118 339 207 146 88 273
161 284 161 10 0 39 -6 65 -14z m-3969 -293 c13 -17 40 -40 62 -52 l39 -22
-47 -32 c-33 -22 -55 -48 -73 -84 l-26 -52 -13 35 c-17 46 -63 98 -101 114
-16 7 -30 16 -30 20 0 4 14 13 30 20 41 17 87 71 101 121 l13 41 11 -39 c7
-22 22 -53 34 -70z m4951 29 l0 -78 -35 -20 c-97 -54 -603 -363 -678 -414
l-52 -36 0 -70 c0 -61 -4 -77 -30 -119 -68 -110 -207 -127 -323 -39 -40 31
-62 28 -136 -20 -54 -35 -79 -73 -126 -196 -24 -63 -43 -85 -166 -195 -146
-130 -352 -322 -465 -432 l-105 -104 -47 50 c-26 28 -47 54 -47 58 0 4 78 80
172 168 95 88 238 222 319 298 l148 138 56 114 c35 71 71 130 98 157 47 48
144 100 191 102 32 1 39 10 55 73 14 53 52 98 104 124 51 26 164 24 195 -4 10
-9 25 -17 34 -17 8 0 62 37 119 83 96 75 270 188 589 381 69 42 126 76 128 76
1 0 2 -35 2 -78z m-4472 9 c465 -280 595 -364 665 -424 l59 -50 51 24 c128 60
286 -17 304 -150 7 -49 9 -51 69 -57 64 -6 156 -58 213 -119 26 -29 67 -92 92
-141 41 -84 55 -100 239 -279 488 -477 875 -863 900 -900 61 -91 66 -128 75
-562 5 -298 12 -275 -83 -288 l-53 -7 -1 269 c0 147 0 284 0 303 1 50 -18 129
-42 175 -27 54 -128 157 -691 707 -469 458 -481 471 -510 540 -16 38 -45 88
-64 110 -30 35 -86 71 -116 73 -5 1 -20 5 -33 9 -17 6 -30 1 -55 -20 -74 -62
-161 -72 -248 -26 -43 23 -59 38 -82 82 -26 50 -28 61 -22 117 6 59 5 63 -17
73 -13 6 -39 20 -58 31 -102 61 -187 111 -204 122 -112 69 -168 103 -271 162
-66 38 -146 86 -177 107 -54 36 -58 42 -58 77 0 41 10 101 17 101 2 0 48 -26
101 -59z m4897 -196 c0 -31 -49 -28 -53 3 -3 20 0 23 25 20 20 -2 28 -8 28
-23z m-265 -125 c107 -54 139 -197 69 -303 -53 -80 -175 -112 -261 -69 -35 18
-36 18 -79 -5 -24 -13 -56 -31 -71 -41 -15 -9 -87 -53 -160 -97 -73 -44 -191
-116 -263 -161 -71 -44 -150 -92 -175 -106 -25 -14 -108 -63 -185 -110 -77
-46 -161 -95 -188 -107 -48 -23 -104 -80 -113 -116 -5 -20 -50 -48 -63 -40 -4
2 -30 -8 -59 -23 -35 -18 -121 -95 -267 -239 -119 -117 -222 -213 -230 -213
-7 0 -29 20 -49 45 l-37 44 49 53 c128 139 342 345 406 392 103 76 501 324
1081 674 105 63 213 130 242 148 l51 35 0 58 c0 71 22 122 68 159 66 53 157
61 234 22z m-4674 -15 c45 -34 73 -95 74 -158 0 -59 17 -77 150 -155 52 -30
187 -111 300 -180 113 -69 216 -132 230 -139 14 -8 36 -22 50 -31 14 -9 41
-26 59 -37 18 -11 126 -78 240 -149 113 -71 235 -146 271 -169 130 -80 130
-80 659 -600 297 -293 351 -355 351 -411 0 -12 4 -26 9 -31 4 -6 6 -31 2 -57
l-6 -48 -53 25 c-30 14 -60 25 -68 25 -8 0 -14 10 -14 23 -1 57 -40 105 -256
312 -120 115 -304 294 -409 396 -187 183 -255 239 -294 239 -11 0 -23 5 -26
10 -3 6 -14 10 -23 10 -10 0 -25 17 -36 41 -26 52 -60 80 -165 135 -47 24 -93
48 -101 54 -8 5 -62 37 -120 71 -58 34 -172 103 -255 154 -328 202 -543 325
-566 325 -13 -1 -35 -7 -49 -15 -33 -19 -112 -19 -158 1 -85 35 -129 114 -120
215 6 62 47 124 103 157 34 20 51 22 112 19 60 -3 78 -9 109 -32z m-548 -242
l-22 -23 -23 22 -23 22 22 23 22 23 23 -22 23 -22 -22 -23z m5593 -11 l-23
-23 -24 22 -24 23 21 22 22 23 26 -21 26 -22 -24 -24z m-2413 -64 c-6 -18 -28
-21 -28 -4 0 9 7 16 16 16 9 0 14 -5 12 -12z m-540 -251 c23 -23 42 -45 42
-48 0 -8 -252 -259 -260 -259 -3 0 -26 20 -50 45 l-44 45 129 130 c71 72 132
130 135 130 3 0 25 -19 48 -43z m2967 13 c0 -18 -6 -26 -21 -28 -26 -4 -40 24
-23 45 18 21 44 11 44 -17z m-5104 -21 c44 -15 92 -61 114 -110 16 -34 22 -39
51 -39 38 0 103 -26 165 -66 73 -47 82 -53 126 -74 63 -31 193 -130 241 -185
24 -27 59 -76 79 -109 58 -96 109 -159 145 -180 18 -10 42 -27 53 -37 11 -10
29 -18 40 -18 50 1 103 -17 149 -52 44 -33 173 -89 206 -89 23 0 251 -120 303
-160 29 -21 76 -67 106 -102 30 -35 42 -52 26 -38 -16 14 -35 32 -41 40 -10
12 -21 13 -65 3 -30 -6 -59 -7 -65 -2 -5 4 -20 6 -32 2 -17 -4 -22 -1 -22 15
0 14 -9 21 -30 26 -28 5 -43 26 -19 26 5 0 7 5 4 11 -4 6 -19 7 -36 4 -18 -4
-41 -1 -61 10 -18 9 -88 36 -154 60 -67 24 -198 83 -290 132 -192 100 -248
146 -349 283 -108 148 -151 185 -337 288 -92 50 -171 92 -177 92 -5 0 -20 -19
-33 -42 -57 -105 -233 -122 -320 -31 -32 34 -58 101 -58 152 0 75 72 178 135
194 37 9 112 7 146 -4z m4680 -1 c85 -28 139 -106 139 -200 0 -103 -61 -178
-159 -196 -94 -17 -162 10 -216 87 -15 23 -32 41 -37 41 -6 0 -58 -28 -117
-63 -58 -35 -137 -81 -175 -102 -85 -46 -136 -97 -206 -201 -62 -91 -138 -175
-195 -214 -79 -54 -359 -192 -382 -187 -12 2 -24 -2 -27 -8 -4 -11 -120 -55
-145 -55 -6 0 -8 6 -5 14 3 8 1 17 -5 21 -10 6 -13 1 -15 -35 -1 -8 -27 -27
-59 -42 -37 -18 -90 -59 -146 -113 -48 -47 -91 -85 -95 -85 -3 0 -6 11 -6 25
0 13 -5 35 -11 49 -7 14 -8 33 -4 43 5 10 7 24 6 30 -6 42 106 124 260 190
l81 35 39 -21 c24 -14 47 -20 59 -16 27 9 25 19 -7 35 l-28 12 35 13 c51 18
130 59 169 89 19 14 41 26 47 26 29 0 151 67 185 101 21 21 63 77 95 125 87
132 166 204 334 306 185 111 258 148 291 148 21 0 31 10 53 50 48 89 153 130
247 98z m323 -355 c10 -24 -12 -45 -35 -32 -21 11 -24 30 -8 46 14 14 35 7 43
-14z m-3888 -148 c34 -14 64 -61 64 -101 0 -53 -61 -114 -114 -114 -104 0
-157 105 -94 185 36 45 84 56 144 30z m2435 -1 c31 -15 59 -66 59 -104 0 -83
-101 -136 -180 -95 -38 20 -50 43 -50 98 0 92 88 144 171 101z m-3324 -98 c4
-3 13 -6 21 -6 29 0 119 -53 165 -98 27 -26 73 -82 103 -124 65 -92 108 -130
183 -159 56 -22 94 -47 89 -58 -2 -3 -29 -31 -62 -61 l-58 -55 -32 35 c-17 19
-57 55 -88 79 -32 23 -106 95 -165 158 -105 113 -146 143 -197 143 -30 0 -36
-9 -41 -58 -11 -107 -9 -132 14 -148 16 -11 20 -22 15 -36 -5 -17 -3 -20 10
-15 11 5 16 1 16 -12 0 -20 23 -44 33 -34 4 3 9 -2 13 -11 3 -9 15 -16 25 -16
27 0 35 -26 14 -46 -22 -23 -58 -21 -91 5 -19 15 -31 18 -38 11 -16 -16 -28
-11 -21 10 9 27 -7 51 -46 69 -21 10 -35 25 -37 38 -2 12 -13 24 -26 27 -29 7
-57 89 -37 109 8 8 11 4 11 -16 0 -31 6 -33 32 -10 11 10 18 30 18 53 0 39
-11 50 -51 50 -18 0 -20 6 -17 88 l3 87 40 6 c49 7 194 3 202 -5z m4332 0 c11
-7 13 -35 7 -150 -7 -145 -25 -229 -54 -256 -10 -8 -25 -28 -35 -43 -10 -16
-34 -35 -52 -43 -19 -8 -39 -23 -45 -34 -6 -11 -16 -19 -23 -17 -7 1 -11 -6
-9 -15 2 -11 -3 -18 -13 -18 -14 0 -14 3 0 30 8 16 15 38 15 50 0 12 16 46 35
76 19 30 35 61 35 69 0 7 4 16 9 19 11 7 21 94 14 129 -3 15 -11 27 -18 27 -7
0 -19 7 -26 16 -9 11 -24 15 -50 11 -66 -9 -105 -36 -185 -130 -42 -51 -117
-127 -166 -170 -50 -42 -98 -87 -108 -100 l-18 -22 -59 55 c-32 30 -58 58 -57
63 1 4 2 11 3 17 0 5 38 27 84 49 87 41 126 76 197 176 118 166 218 220 404
220 55 0 107 -4 115 -9z m-3229 -147 c14 -26 -4 -51 -34 -47 -24 4 -33 33 -16
53 17 21 37 19 50 -6z m1914 -25 c3 -8 2 -12 -4 -9 -6 3 -10 10 -10 16 0 14 7
11 14 -7z m-2262 -406 c36 -10 91 -60 115 -102 7 -13 32 -18 129 -23 81 -4
135 -12 168 -25 83 -32 151 -93 194 -173 26 -49 27 -54 30 -262 3 -154 0 -213
-8 -213 -22 0 -105 23 -117 33 -9 7 -13 51 -13 156 0 202 -3 214 -64 277 -60
61 -96 74 -213 74 l-81 0 -36 -50 c-46 -64 -97 -90 -175 -90 -72 0 -98 9 -145
51 -72 62 -86 151 -40 246 24 50 71 96 109 106 37 9 108 7 147 -5z m2765 -25
c56 -45 78 -95 78 -179 0 -60 -4 -77 -28 -112 -36 -56 -90 -82 -167 -82 -83 0
-121 19 -172 84 l-43 56 -70 0 c-116 0 -177 -27 -239 -103 l-31 -39 -5 -186
-5 -187 -50 -11 c-95 -22 -87 -42 -83 199 3 187 5 217 23 252 38 78 152 170
237 192 13 3 71 10 129 16 103 10 106 11 127 43 23 36 76 79 107 87 11 3 51 4
88 3 58 -3 74 -8 104 -33z m365 -35 c-7 -7 -12 -8 -12 -2 0 14 12 26 19 19 2
-3 -1 -11 -7 -17z m-2382 -69 c0 -6 -4 -7 -10 -4 -5 3 -10 11 -10 16 0 6 5 7
10 4 6 -3 10 -11 10 -16z m2450 -13 c0 -3 -4 -8 -10 -11 -5 -3 -10 -1 -10 4 0
6 5 11 10 11 6 0 10 -2 10 -4z m-50 -36 c0 -5 -4 -10 -10 -10 -5 0 -10 5 -10
10 0 6 5 10 10 10 6 0 10 -4 10 -10z m-3909 -164 c437 -416 1064 -700 1714
-777 142 -17 518 -17 665 0 506 58 1024 256 1459 559 97 67 307 239 349 285
l24 25 66 -76 c85 -100 243 -273 262 -290 12 -10 52 -11 180 -7 l165 6 -145
-146 c-175 -177 -282 -270 -460 -401 -381 -281 -761 -470 -1205 -599 -303 -88
-516 -121 -864 -135 -672 -27 -1242 95 -1836 395 -379 191 -706 429 -1024 746
l-134 134 170 5 171 5 78 85 c44 47 117 129 164 183 47 53 89 97 94 97 4 0 53
-42 107 -94z m1656 -131 c31 -22 48 -78 31 -104 -16 -26 -66 -51 -87 -44 -50
18 -72 73 -47 121 23 44 64 55 103 27z m494 -12 c56 -32 89 -84 96 -146 12
-118 -24 -200 -104 -233 -82 -35 -211 -2 -257 64 -79 115 -42 267 78 324 50
23 140 19 187 -9z m-457 -255 c21 -40 20 -68 0 -68 -10 0 -14 -5 -10 -15 4
-10 -3 -19 -19 -27 -33 -15 -58 -4 -50 23 6 18 3 20 -22 17 -24 -3 -28 1 -31
24 -5 43 15 71 45 63 16 -4 22 -2 18 5 -4 6 6 10 24 10 23 0 33 -7 45 -32z"/>
<path d="M4125 7308 c-55 -30 -62 -92 -14 -132 17 -14 39 -26 49 -26 10 0 32
12 49 26 23 19 31 34 31 59 0 25 -8 40 -31 59 -33 28 -53 31 -84 14z"/>
<path d="M3463 7080 c-40 -16 -57 -85 -30 -121 15 -20 51 -39 72 -39 26 0 75
55 75 85 0 31 -49 85 -77 84 -10 0 -28 -4 -40 -9z"/>
<path d="M4769 7061 c-34 -34 -37 -68 -9 -104 39 -49 106 -43 135 14 14 26 15
36 4 60 -26 63 -83 76 -130 30z"/>
<path d="M2874 6687 c-54 -47 -16 -140 56 -140 71 0 102 92 46 139 -34 30 -67
30 -102 1z"/>
<path d="M5345 6685 c-53 -52 -18 -135 57 -135 74 0 104 86 47 134 -38 33 -73
33 -104 1z"/>
<path d="M4526 4841 c-4 -5 -2 -12 3 -15 5 -4 12 -2 15 3 4 5 2 12 -3 15 -5 4
-12 2 -15 -3z"/>
<path d="M4445 4740 c-3 -5 -1 -10 4 -10 6 0 11 5 11 10 0 6 -2 10 -4 10 -3 0
-8 -4 -11 -10z"/>
<path d="M5444 4155 c-29 -12 -54 -50 -54 -81 0 -26 56 -74 86 -74 36 0 84 45
84 80 0 58 -61 98 -116 75z"/>
<path d="M2791 4134 c-29 -37 -27 -75 7 -107 33 -32 70 -34 105 -7 64 51 30
139 -55 140 -28 0 -41 -6 -57 -26z"/>
<path d="M6463 4274 c-43 -33 -46 -83 -7 -119 35 -32 74 -32 107 1 39 38 33
91 -12 121 -43 29 -49 29 -88 -3z"/>
<path d="M1759 4271 c-17 -18 -29 -40 -29 -56 0 -37 50 -85 87 -85 30 0 64 28
77 63 9 26 -20 82 -50 96 -38 17 -53 14 -85 -18z"/>
<path d="M1760 3665 c-30 -32 -27 -88 6 -114 72 -57 164 13 123 92 -25 47 -95
59 -129 22z"/>
<path d="M3555 2660 c-4 -6 1 -18 11 -25 36 -27 48 -11 15 19 -13 12 -21 14
-26 6z"/>
<path d="M6451 3663 c-39 -49 -38 -72 3 -111 44 -39 76 -38 114 4 29 33 28 65
-4 103 -34 41 -83 43 -113 4z"/>
<path d="M4995 2790 c-3 -5 -1 -10 4 -10 6 0 11 5 11 10 0 6 -2 10 -4 10 -3 0
-8 -4 -11 -10z"/>
<path d="M6425 2941 c-3 -5 -1 -12 5 -16 5 -3 10 1 10 9 0 18 -6 21 -15 7z"/>
<path d="M6405 2850 c3 -5 8 -10 11 -10 2 0 4 5 4 10 0 6 -5 10 -11 10 -5 0
-7 -4 -4 -10z"/>
<path d="M6340 2791 c0 -6 5 -13 10 -16 6 -3 10 1 10 9 0 9 -4 16 -10 16 -5 0
-10 -4 -10 -9z"/>
<path d="M2748 2485 c-51 -51 -19 -135 52 -135 71 0 102 79 52 133 -32 34 -71
35 -104 2z"/>
<path d="M5492 2502 c-22 -3 -62 -54 -62 -79 0 -6 12 -25 26 -42 21 -25 34
-31 64 -31 65 0 103 72 63 117 -23 25 -61 40 -91 35z"/>
<path d="M1969 2043 c-29 -31 -123 -146 -172 -211 -13 -17 28 -60 108 -114 57
-38 63 -40 122 -36 55 3 67 8 99 38 65 62 81 137 45 215 -20 45 -124 145 -150
145 -9 0 -33 -17 -52 -37z m95 -116 c29 -38 33 -75 11 -116 -26 -50 -79 -55
-127 -12 l-32 28 53 67 c29 36 57 66 61 66 5 0 20 -15 34 -33z"/>
<path d="M6202 2022 c-28 -20 -71 -56 -96 -79 l-46 -42 86 -108 c110 -137 134
-163 152 -163 14 0 93 62 164 129 l38 35 -22 23 c-12 13 -28 23 -36 23 -7 0
-38 -20 -66 -45 -59 -50 -64 -52 -81 -28 -11 14 -5 23 39 63 48 45 50 49 38
74 -18 40 -39 43 -75 10 -74 -68 -72 -68 -90 -40 -16 24 -16 25 53 78 39 29
70 55 70 59 0 8 -57 49 -69 49 -5 0 -32 -17 -59 -38z"/>
<path d="M2295 1778 c-21 -35 -62 -100 -92 -145 -29 -44 -53 -86 -53 -92 0 -9
190 -141 204 -141 7 0 56 53 56 61 0 4 -29 26 -65 49 -66 43 -76 58 -52 78 10
9 26 3 65 -23 28 -19 56 -35 61 -35 9 0 41 50 41 63 0 3 -25 22 -55 42 -56 39
-65 54 -42 73 9 7 31 -2 80 -34 38 -25 72 -42 76 -39 5 2 14 18 21 35 12 28
11 33 -6 49 -23 22 -182 121 -193 121 -4 0 -25 -28 -46 -62z"/>
<path d="M5855 1784 c-39 -20 -83 -62 -101 -96 -31 -60 -10 -159 46 -217 83
-85 199 -74 297 26 29 30 53 61 53 69 0 8 -16 46 -35 84 -38 76 -57 86 -91 49
-10 -12 -38 -32 -61 -46 -47 -27 -52 -41 -25 -66 23 -21 36 -21 66 -1 29 18
42 4 26 -26 -14 -26 -61 -50 -100 -50 -43 0 -90 47 -90 90 0 63 64 123 112
105 17 -7 58 37 58 61 0 34 -101 46 -155 18z"/>
<path d="M2594 1669 c-3 -6 -9 -95 -12 -197 -5 -199 -5 -201 44 -216 16 -5 48
19 157 121 75 69 137 132 137 140 0 7 -16 21 -35 30 -40 19 -29 26 -159 -97
l-58 -55 6 45 c11 86 9 189 -3 204 -17 21 -69 37 -77 25z"/>
<path d="M5440 1559 c-30 -11 -67 -25 -82 -31 -16 -5 -28 -16 -28 -24 0 -16
95 -276 116 -316 8 -16 17 -28 20 -28 3 0 38 15 77 33 138 64 191 140 169 238
-30 128 -137 178 -272 128z m153 -97 c24 -24 33 -87 17 -116 -11 -21 -88 -73
-94 -65 -2 3 -42 107 -62 162 -5 13 2 21 27 32 40 18 87 12 112 -13z"/>
<path d="M2969 1483 c-6 -16 -33 -93 -60 -172 -55 -161 -54 -167 13 -177 39
-7 36 -11 58 74 6 23 14 42 19 42 4 0 18 -35 31 -77 12 -43 27 -83 34 -90 6
-7 30 -15 54 -19 52 -8 52 -7 7 114 -19 51 -35 98 -35 105 1 6 37 34 80 60 44
26 80 54 80 61 0 7 -16 20 -35 29 l-35 17 -62 -40 c-82 -52 -91 -52 -73 1 21
59 19 68 -20 85 -45 18 -44 19 -56 -13z"/>
<path d="M5098 1437 c-59 -18 -112 -37 -118 -43 -8 -8 4 -57 45 -184 l57 -172
30 6 c52 10 196 58 212 70 13 9 14 17 4 49 -6 20 -17 37 -25 37 -7 0 -41 -11
-75 -25 -69 -28 -91 -26 -86 7 2 18 15 27 61 42 47 15 57 22 57 41 0 60 -16
66 -98 35 l-52 -20 -10 26 c-6 14 -10 27 -10 29 0 2 34 14 76 26 42 12 78 28
81 35 6 15 -18 67 -32 70 -5 1 -58 -12 -117 -29z"/>
<path d="M3316 1389 c-7 -19 -63 -265 -71 -311 -6 -30 -4 -38 13 -47 31 -16
60 -13 71 7 5 10 15 49 22 85 7 37 15 67 18 67 3 0 26 -39 51 -86 62 -120 75
-134 115 -134 19 0 36 3 38 8 3 4 19 83 37 177 30 163 31 170 13 183 -10 7
-31 12 -47 10 -30 -3 -30 -4 -47 -101 -10 -55 -20 -101 -22 -103 -2 -3 -28 48
-57 113 -29 65 -56 121 -59 125 -14 16 -71 21 -75 7z"/>
<path d="M4664 1326 c-11 -28 48 -350 66 -361 17 -10 242 38 247 52 9 22 -12
78 -28 77 -8 -1 -42 -8 -77 -15 -52 -11 -65 -11 -71 0 -5 7 -16 61 -25 119
-24 149 -21 142 -67 142 -25 0 -42 -5 -45 -14z"/>
<path d="M3714 1281 c15 -97 86 -336 102 -348 23 -17 69 -17 82 0 8 10 56 127
87 212 5 15 17 -14 43 -105 l37 -125 43 0 43 0 60 160 c33 88 61 174 62 190 2
28 -1 30 -34 33 -47 4 -60 -13 -94 -120 -16 -49 -30 -86 -32 -84 -2 1 -15 43
-29 92 -15 49 -31 95 -36 102 -6 6 -30 12 -53 12 -23 0 -47 -6 -52 -12 -6 -7
-23 -47 -38 -88 -47 -127 -45 -126 -71 -17 -32 131 -36 137 -86 137 l-41 0 7
-39z"/>
<path d="M4347 1293 c-5 -11 11 -343 18 -361 5 -12 23 -14 107 -8 124 8 149
20 139 68 -8 36 -1 34 -106 27 l-50 -4 -8 130 c-4 72 -9 136 -12 143 -5 13
-81 17 -88 5z"/>
<path d="M4102 2007 c-31 -33 -28 -77 6 -110 35 -33 72 -35 108 -4 35 31 37
77 4 112 -31 33 -88 34 -118 2z"/>
<path d="M7642 7180 c0 -14 2 -19 5 -12 2 6 2 18 0 25 -3 6 -5 1 -5 -13z"/>
<path d="M6440 6976 c0 -2 8 -10 18 -17 15 -13 16 -12 3 4 -13 16 -21 21 -21
13z"/>
<path d="M6993 6959 c-18 -5 -33 -11 -33 -13 0 -10 56 -2 68 10 15 16 11 16
-35 3z"/>
<path d="M1335 6950 c-3 -5 -2 -10 4 -10 5 0 13 5 16 10 3 6 2 10 -4 10 -5 0
-13 -4 -16 -10z"/>
<path d="M7662 6360 c0 -14 2 -19 5 -12 2 6 2 18 0 25 -3 6 -5 1 -5 -13z"/>
<path d="M7728 6083 c7 -3 16 -2 19 1 4 3 -2 6 -13 5 -11 0 -14 -3 -6 -6z"/>
</g>
</svg>
